<svg width="53" height="98" fill="none" xmlns="http://www.w3.org/2000/svg">
<path d="M2600 12758 c0 -24 4 -214 10 -423 5 -209 17 -695 25 -1080 8 -385
20 -790 25 -900 5 -110 12 -312 15 -450 3 -137 12 -430 20 -650 8 -220 17
-535 21 -700 3 -165 7 -345 9 -400 2 -55 4 -207 5 -339 l0 -238 28 5 c69 14
89 20 119 33 27 12 31 19 28 44 -2 20 2 33 13 39 12 7 1 18 -56 55 -41 26 -72
53 -72 62 0 9 9 31 19 48 11 17 24 49 30 71 28 113 107 312 148 374 34 50 79
216 62 227 -5 3 -9 16 -9 28 0 17 7 25 25 28 29 6 39 -4 30 -31 -4 -14 0 -20
12 -23 22 -4 153 9 210 20 36 8 47 6 72 -12 19 -13 32 -33 36 -55 4 -20 13
-35 25 -38 10 -3 20 -17 24 -34 6 -33 17 -36 42 -12 15 16 17 16 30 -2 8 -10
14 -23 14 -29 0 -5 21 -29 48 -53 51 -48 37 -46 178 -27 41 6 48 4 77 -23 66
-62 158 -70 275 -22 109 44 164 57 214 52 73 -8 154 14 193 53 49 49 78 118
72 176 -2 26 1 52 6 57 12 12 42 -2 70 -31 10 -10 22 -16 28 -13 5 4 13 -5 19
-19 5 -14 20 -28 35 -32 14 -3 22 -11 18 -17 -3 -5 -2 -7 4 -4 5 3 25 -4 44
-17 19 -13 45 -26 59 -30 53 -16 80 -32 86 -49 4 -14 12 -17 30 -13 19 5 22 3
17 -11 -4 -10 -2 -14 4 -10 34 21 176 -73 157 -104 -4 -8 -3 -10 4 -5 7 4 12
1 12 -8 0 -8 11 -28 25 -44 13 -16 21 -32 17 -36 -4 -4 0 -13 9 -19 17 -13 23
-40 39 -170 5 -43 13 -84 17 -90 9 -14 9 -23 13 -207 2 -91 7 -139 16 -147 9
-10 13 -10 16 -1 2 6 10 8 16 4 7 -4 9 -12 6 -18 -8 -12 -273 -1 -289 12 -5 4
-50 8 -99 9 -49 1 -94 5 -100 9 -6 3 -18 7 -26 9 -8 1 -35 5 -60 9 -54 8 -146
16 -178 15 -13 -1 -32 3 -41 9 -10 5 -94 10 -187 11 -93 1 -173 5 -179 9 -5 4
-35 10 -65 13 -30 4 -91 14 -135 22 -130 26 -120 32 -123 -58 -2 -58 -7 -79
-18 -84 -12 -4 -44 -63 -44 -80 0 -3 12 -2 26 1 19 5 30 2 39 -11 11 -15 33
-17 161 -19 155 -2 214 -7 301 -26 34 -7 57 -8 65 -1 22 16 468 -13 573 -37
50 -11 103 -23 118 -27 17 -3 33 -15 39 -29 6 -13 19 -26 30 -29 11 -4 18 -16
18 -32 0 -24 -2 -25 -57 -22 -32 1 -79 1 -105 1 -41 -2 -48 -5 -48 -22 0 -18
6 -21 48 -20 72 0 137 -6 151 -14 15 -9 114 -10 143 0 13 4 18 12 15 24 -10
37 33 33 168 -17 39 -15 72 -30 75 -33 6 -10 67 -46 100 -61 135 -60 197 -98
230 -144 8 -11 31 -38 51 -60 73 -78 98 -112 112 -151 31 -83 46 -130 56 -170
9 -33 17 -44 44 -54 82 -31 78 -27 71 -67 -3 -21 -19 -66 -35 -101 -16 -35
-29 -68 -29 -73 0 -5 -6 -18 -12 -29 -10 -16 -10 -22 3 -35 27 -27 71 19 85
90 12 63 18 82 30 100 8 11 14 27 14 36 0 9 6 29 14 45 8 16 17 42 20 57 3 15
19 56 35 91 17 34 31 72 31 83 0 19 27 93 34 93 1 0 3 -16 4 -35 1 -20 -2 -33
-7 -30 -5 2 -12 -2 -15 -11 -9 -24 -7 -31 4 -14 9 13 10 13 10 0 -1 -8 -7 -24
-15 -34 -8 -11 -15 -31 -15 -45 0 -33 -21 -93 -40 -116 -12 -14 -12 -18 1 -26
12 -7 11 -9 -2 -9 -20 0 -29 -20 -29 -62 0 -17 -9 -47 -19 -67 -17 -32 -33
-68 -35 -81 -1 -3 -5 -11 -10 -18 -9 -15 12 -44 28 -39 6 2 24 -11 41 -28 16
-18 75 -62 130 -99 55 -37 118 -80 140 -97 22 -17 69 -49 105 -72 61 -40 69
-50 140 -172 41 -71 84 -143 94 -160 82 -128 144 -216 203 -283 l32 -37 1
1323 c0 727 -2 1322 -3 1322 -2 0 -31 -41 -63 -91 -90 -139 -157 -204 -121
-118 13 31 101 164 163 245 24 31 24 33 24 287 0 224 -2 256 -15 251 -8 -4
-15 -12 -15 -20 0 -8 -9 -19 -20 -26 -11 -7 -20 -19 -20 -26 0 -7 -4 -11 -10
-7 -5 3 -16 -7 -24 -22 -21 -41 -96 -113 -117 -113 -10 0 -28 -13 -40 -29 -18
-25 -27 -29 -56 -25 -21 2 -32 0 -28 -6 3 -5 13 -10 21 -10 11 0 13 -7 8 -27
-10 -49 -13 -53 -35 -53 -12 0 -23 -8 -26 -20 -6 -24 -19 -26 -27 -5 -3 10
-19 15 -42 15 -31 0 -36 3 -31 20 8 29 -8 15 -23 -20 -7 -16 -16 -30 -20 -30
-12 0 -32 53 -21 59 19 12 12 131 -9 131 -8 0 -40 -34 -40 -43 0 -4 7 -7 15
-7 8 0 15 -4 15 -10 0 -5 -18 -10 -40 -10 -22 0 -40 5 -40 10 0 6 -10 10 -22
10 -14 0 -31 12 -43 30 -16 24 -27 30 -57 30 -36 0 -38 -2 -38 -30 0 -25 -4
-30 -25 -30 -22 0 -25 -4 -25 -40 0 -36 -2 -40 -25 -40 -14 0 -25 5 -25 10 0
6 5 10 10 10 6 0 10 25 10 55 l0 55 -40 0 c-29 0 -40 4 -40 15 0 8 -9 15 -20
15 -17 0 -20 7 -20 40 l0 40 -40 0 c-44 0 -51 13 -20 32 13 9 20 24 20 44 0
28 -5 34 -42 50 -24 10 -61 21 -83 25 l-40 6 40 1 c44 2 77 34 56 55 -8 8 -11
6 -11 -6 0 -13 -9 -17 -39 -17 -36 0 -40 3 -44 28 -3 19 -4 14 -6 -15 -1 -41
-3 -43 -31 -43 -29 0 -30 1 -31 53 0 28 -3 46 -6 40 -7 -18 -243 -18 -243 0 0
7 -10 17 -22 22 -13 6 -24 20 -26 33 -2 12 -8 20 -13 17 -5 -4 -9 3 -9 14 0
12 5 21 10 21 6 0 10 9 10 20 0 15 7 20 25 20 32 0 31 6 -4 35 -26 22 -28 29
-23 75 l5 50 -57 0 c-56 0 -56 0 -56 -30 0 -33 -12 -37 -49 -16 l-23 13 26 20
c19 16 26 30 26 56 0 19 5 37 11 39 6 2 9 13 6 23 -5 19 -5 19 -12 -2 -5 -16
-15 -23 -32 -23 -28 0 -59 25 -43 35 5 3 10 1 10 -4 0 -24 22 -9 35 23 8 19
19 37 24 40 16 10 0 120 -18 131 -13 8 -11 11 14 16 28 6 27 7 -12 8 -23 0
-43 6 -46 14 -3 9 -13 8 -42 -6 -41 -19 -42 -19 -45 3 -4 29 0 38 21 43 12 3
18 10 14 16 -3 6 8 31 24 55 17 25 31 50 31 56 0 19 -34 48 -60 52 -23 3 -25
6 -22 52 1 27 6 54 11 60 4 6 11 19 15 30 5 15 2 17 -19 12 -23 -6 -25 -4 -25
29 0 19 5 35 10 35 6 0 10 -10 10 -22 1 -22 1 -23 15 -4 19 25 19 46 0 46 -8
0 -15 6 -15 13 0 8 -11 19 -24 25 -23 10 -56 62 -56 87 0 7 7 18 15 25 11 9
14 23 9 49 -4 20 -10 38 -13 41 -17 14 -51 91 -51 116 0 49 -20 104 -37 104
-9 0 -13 6 -10 14 4 9 -4 16 -24 20 -18 3 -33 15 -39 28 -5 13 -9 17 -9 9 -1
-8 -4 -11 -7 -8 -4 4 -1 13 6 22 9 11 22 14 46 9 27 -5 34 -3 34 10 0 12 -10
16 -36 16 -34 0 -73 28 -74 54 0 5 -7 14 -16 21 -25 18 -9 55 24 56 15 0 21 3
15 6 -8 3 -11 14 -7 27 7 28 -11 76 -29 76 -7 0 -13 11 -12 28 0 26 -2 27 -50
26 -27 0 -45 1 -39 3 13 4 -6 70 -23 82 -6 3 -15 16 -22 28 -19 36 -82 63
-149 63 l-59 0 1 -37 1 -38 57 3 c60 4 87 -5 131 -46 20 -19 27 -35 27 -63 0
-21 -4 -41 -10 -44 -5 -3 -10 -21 -10 -39 0 -20 -8 -40 -19 -50 -23 -21 -93
-26 -99 -8 -2 7 -12 12 -23 12 -34 0 -106 62 -128 111 -12 25 -32 52 -46 59
-34 18 -32 51 4 71 31 18 44 15 54 -15 4 -10 10 -16 14 -13 3 4 0 20 -7 38
-11 26 -11 32 1 40 11 7 5 17 -29 49 -43 40 -43 40 -125 40 -73 0 -84 2 -96
21 -8 14 -15 18 -20 11 -9 -15 -111 -4 -105 12 5 14 -48 39 -55 27 -3 -5 -24
-5 -46 -1 -22 4 -32 8 -22 9 13 1 17 10 17 41 0 36 -3 40 -24 40 -19 0 -25 7
-30 35 -8 40 -25 55 -38 31 -6 -11 -23 -16 -57 -16 -59 0 -83 16 -70 48 11 28
29 29 29 0 0 -12 3 -19 6 -15 3 3 3 40 -1 81 l-7 76 -39 0 c-32 0 -39 -3 -39
-20 0 -11 -4 -20 -9 -20 -19 0 -41 45 -41 82 0 35 -2 38 -29 38 -17 0 -31 6
-35 15 -3 9 -22 25 -43 38 -28 16 -33 23 -20 25 23 5 25 82 2 82 -11 0 -15 11
-15 40 0 22 -4 40 -10 40 -5 0 -10 -18 -10 -40 0 -38 -1 -39 -37 -45 -21 -3
-50 -8 -65 -10 -16 -3 -28 0 -28 5 0 6 11 10 25 10 22 0 25 4 25 39 0 22 5 41
12 43 19 7 1 38 -22 38 -13 0 -20 7 -20 20 0 13 -7 20 -20 20 -20 0 -25 -13
-21 -57 1 -13 -4 -23 -11 -23 -8 0 -13 14 -13 40 0 22 3 40 8 40 11 0 8 152
-3 170 -7 11 -10 7 -10 -18 0 -36 -15 -72 -30 -72 -12 0 -13 37 -2 42 5 2 12
15 16 31 6 26 5 27 -34 27 -25 0 -40 5 -40 13 -1 6 -9 2 -19 -10 -11 -13 -27
-23 -36 -23 -14 0 -16 -7 -10 -40 4 -26 3 -40 -4 -40 -6 0 -11 9 -11 20 0 17
-7 20 -50 20 -43 0 -50 -3 -50 -20 0 -26 -46 -28 -53 -2 -4 15 -5 15 -6 0 0
-9 4 -20 9 -23 6 -3 10 -30 9 -58 0 -38 -3 -47 -9 -32 -7 17 -9 14 -9 -13 -1
-22 -5 -31 -13 -26 -8 5 -9 0 -5 -17 4 -13 7 -39 7 -56 0 -23 5 -33 15 -33 11
0 15 -11 15 -40 0 -33 -3 -40 -20 -40 -22 0 -22 0 -25 -166 -1 -50 -9 -101
-20 -132 -16 -45 -17 -59 -7 -113 8 -43 8 -68 1 -81 -6 -12 -9 -66 -6 -138 4
-93 1 -124 -10 -140 -15 -22 -17 -126 -2 -146 10 -12 12 -105 5 -214 -3 -41
-7 -127 -10 -190 -8 -181 -14 -239 -30 -268 -49 -91 -63 -238 -27 -276 11 -12
25 -34 32 -51 13 -33 19 -165 7 -165 -5 0 -8 -11 -8 -25 0 -14 -9 -34 -20 -45
-25 -25 -26 -74 -3 -115 12 -22 19 -65 23 -160 6 -129 1 -155 -29 -155 -5 0
-15 -8 -20 -17 -10 -17 -10 -17 -11 0 0 9 5 17 10 17 6 0 10 9 10 21 0 11 -5
17 -10 14 -6 -4 -11 18 -12 57 0 35 -2 74 -3 88 -3 37 -21 626 -21 690 0 30
-6 262 -12 515 -6 253 -12 654 -12 891 0 382 -8 735 -25 1104 -3 63 -8 205
-11 315 -6 194 -8 240 -12 298 l-2 27 -170 0 -170 0 0 -42z m714 -1172 c-9
-24 -34 -28 -34 -6 0 13 7 20 20 20 13 0 17 -5 14 -14z m206 4 c0 -5 -4 -10
-10 -10 -5 0 -10 5 -10 10 0 6 5 10 10 10 6 0 10 -4 10 -10z m-303 -62 c-3 -8
-6 -5 -6 6 -1 11 2 17 5 13 3 -3 4 -12 1 -19z m53 -15 c0 -10 -20 -40 -20 -31
0 3 -3 13 -6 22 -4 11 -1 16 10 16 9 0 16 -3 16 -7z m220 -88 c0 -8 -7 -15
-15 -15 -8 0 -15 7 -15 15 0 8 7 15 15 15 8 0 15 -7 15 -15z m270 -185 c0 -5
-4 -10 -10 -10 -5 0 -10 5 -10 10 0 6 5 10 10 10 6 0 10 -4 10 -10z m205 -250
c3 -5 2 -10 -4 -10 -5 0 -13 5 -16 10 -3 6 -2 10 4 10 5 0 13 -4 16 -10z m35
-14 c0 -8 -7 -16 -15 -20 -12 -4 -13 -2 -2 14 14 24 17 25 17 6z m80 -32 c0
-8 -4 -12 -10 -9 -5 3 -10 10 -10 16 0 5 5 9 10 9 6 0 10 -7 10 -16z m-232
-153 c18 -6 63 -6 102 -2 l70 7 0 -30 c0 -62 -9 -75 -56 -82 -27 -4 -54 -16
-71 -32 -19 -18 -40 -27 -64 -28 l-35 0 -12 78 c-7 43 -10 83 -7 88 8 13 31
13 73 1z m462 -324 c0 -24 -16 -54 -24 -46 -3 3 -3 22 1 42 6 38 23 41 23 4z
m125 -187 c3 -5 -3 -10 -14 -10 -12 0 -21 5 -21 10 0 6 6 10 14 10 8 0 18 -4
21 -10z m-191 -165 c20 -8 36 -19 36 -24 0 -5 14 -12 31 -16 16 -4 48 -24 70
-46 22 -21 57 -48 77 -58 20 -11 45 -29 55 -40 18 -23 24 -91 7 -91 -5 0 -10
-8 -10 -19 0 -10 -11 -35 -25 -55 -14 -20 -25 -40 -25 -45 0 -19 -156 -121
-187 -121 -12 0 -34 -5 -48 -12 -19 -9 -28 -9 -37 0 -7 7 -17 12 -24 12 -13 0
-84 67 -84 79 0 11 -42 47 -62 54 -10 4 -18 2 -18 -3 0 -18 -29 -10 -40 10 -6
11 -17 20 -25 20 -8 0 -15 6 -15 14 0 8 -7 16 -15 20 -8 3 -15 15 -15 26 0 11
-4 20 -10 20 -5 0 -10 11 -10 25 0 26 29 95 41 95 4 0 9 9 12 20 3 11 12 20
21 20 9 0 16 8 16 19 0 26 53 46 115 44 54 -1 85 10 85 32 0 13 25 34 41 35 4
0 23 -7 43 -15z m384 -582 c2 -8 -6 -13 -21 -13 -32 0 -57 9 -57 22 0 14 73 5
78 -9z m-128 -103 c0 -5 -4 -10 -10 -10 -5 0 -10 5 -10 10 0 6 5 10 10 10 6 0
10 -4 10 -10z m-58 -52 c20 -65 47 -74 139 -43 41 14 100 27 132 29 l57 4 0
-42 c0 -24 -9 -78 -20 -121 -11 -43 -20 -90 -20 -104 0 -36 -43 -141 -57 -141
-7 0 -13 -4 -13 -9 0 -6 -21 -13 -47 -17 -60 -8 -111 -38 -115 -66 -3 -21 -7
-22 -133 -22 -71 0 -146 0 -165 2 -19 1 -48 1 -64 -1 -16 -1 -31 3 -33 9 -4
11 53 28 137 43 61 11 75 18 90 46 17 32 6 55 -25 55 -14 0 -41 6 -60 14 -19
8 -55 18 -80 21 -25 4 -48 11 -51 16 -9 15 -54 10 -60 -6 -8 -20 -53 -19 -76
2 -17 15 -19 15 -39 -3 -21 -19 -21 -25 -4 -110 5 -23 3 -33 -9 -37 -21 -8
-66 9 -66 25 0 18 -95 98 -115 98 -9 0 -22 6 -30 13 -7 6 -22 20 -34 29 -25
21 -26 31 -5 53 10 9 19 41 23 73 7 64 2 62 113 48 50 -7 61 -5 98 17 24 14
37 28 31 31 -6 4 -15 5 -20 2 -5 -4 -12 0 -14 6 -4 10 -8 9 -16 -2 -9 -13 -12
-13 -20 -1 -5 7 -14 10 -20 7 -6 -4 -11 -2 -11 5 0 7 -8 9 -21 6 -37 -10 -48
1 -36 36 5 18 11 38 13 45 5 19 42 14 49 -7 3 -11 14 -30 25 -43 l19 -25 103
18 c108 18 146 27 163 39 6 3 28 12 51 19 40 13 96 7 146 -13 11 -5 22 1 35
18 26 36 39 32 55 -16z m1001 -230 c5 -40 -1 -58 -20 -58 -7 0 -25 -12 -38
-26 -22 -24 -25 -25 -25 -7 0 10 -5 24 -11 30 -8 8 -8 13 0 17 6 4 11 23 11
42 0 33 1 34 39 34 36 0 39 -2 44 -32z m-43 -178 c0 -5 -7 -10 -16 -10 -8 0
-12 5 -9 10 3 6 10 10 16 10 5 0 9 -4 9 -10z m-1130 -214 c0 -10 -65 -36 -91
-36 -32 0 -48 18 -28 31 14 9 119 13 119 5z m-143 -12 c-3 -3 -12 -4 -19 -1
-8 3 -5 6 6 6 11 1 17 -2 13 -5z m1456 -31 c-13 -2 -33 -2 -45 0 -13 2 -3 4
22 4 25 0 35 -2 23 -4z m-2493 -48 c0 -16 -6 -25 -15 -25 -16 0 -19 9 -9 34 9
25 24 19 24 -9z m2830 -220 c0 -11 -11 -15 -40 -15 -29 0 -40 4 -40 15 0 11
11 15 40 15 29 0 40 -4 40 -15z m80 -55 c0 -5 -4 -10 -10 -10 -5 0 -10 5 -10
10 0 6 5 10 10 10 6 0 10 -4 10 -10z m-60 -60 c0 -5 -4 -10 -10 -10 -5 0 -10
5 -10 10 0 6 5 10 10 10 6 0 10 -4 10 -10z m-100 -20 c0 -5 -18 -10 -40 -10
-22 0 -40 5 -40 10 0 6 18 10 40 10 22 0 40 -4 40 -10z m-80 -30 c0 -5 -4 -10
-10 -10 -5 0 -10 5 -10 10 0 6 5 10 10 10 6 0 10 -4 10 -10z m1212 -102 c-7
-7 -12 -8 -12 -2 0 14 12 26 19 19 2 -3 -1 -11 -7 -17z m-522 -112 c0 -24 -22
-30 -37 -11 -12 18 -13 18 -13 -4 0 -12 -4 -19 -10 -16 -5 3 -10 15 -10 26 0
15 7 19 35 19 24 0 35 -5 35 -14z m190 -26 c0 -5 -4 -10 -10 -10 -5 0 -10 5
-10 10 0 6 5 10 10 10 6 0 10 -4 10 -10z m485 -92 c-21 -35 -54 -82 -74 -104
-20 -23 -44 -54 -54 -69 -11 -14 -21 -24 -24 -22 -7 8 101 187 143 236 50 58
54 37 9 -41z m-185 -452 c0 -3 -4 -8 -10 -11 -5 -3 -10 -1 -10 4 0 6 5 11 10
11 6 0 10 -2 10 -4z m-1237 -86 c18 -16 37 -30 44 -30 6 0 13 -3 15 -8 2 -4
35 -30 73 -57 39 -28 90 -65 115 -83 25 -17 74 -52 110 -76 89 -61 217 -183
204 -196 -12 -12 -76 -2 -69 11 3 4 -8 15 -25 24 -16 8 -30 22 -30 30 0 7 -10
17 -22 20 -13 4 -32 15 -43 25 -11 10 -31 20 -45 22 -19 2 -26 10 -28 31 -3
23 -8 27 -30 25 -21 -2 -30 4 -42 27 -10 21 -21 29 -35 27 -13 -2 -24 5 -30
20 -5 13 -17 23 -25 24 -8 1 -22 2 -31 2 -9 1 -30 14 -47 30 -57 52 -91 72
-126 72 -28 0 -35 4 -40 25 -8 30 19 63 52 64 13 1 37 -12 55 -29z m736 -602
c20 -12 29 -38 13 -38 -4 0 -25 16 -47 35 -35 31 -37 34 -13 26 15 -6 36 -16
47 -23z"/>
<path d="M4422 9268 c3 -7 23 -14 47 -16 32 -2 42 0 39 10 -3 7 -23 14 -47 16
-32 2 -42 0 -39 -10z"/>
<path d="M5615 7370 c3 -5 8 -10 11 -10 2 0 4 5 4 10 0 6 -5 10 -11 10 -5 0
-7 -4 -4 -10z"/>
<path d="M5778 7283 c7 -3 16 -2 19 1 4 3 -2 6 -13 5 -11 0 -14 -3 -6 -6z"/>
<path d="M3385 11970 c-3 -5 -1 -10 4 -10 6 0 11 5 11 10 0 6 -2 10 -4 10 -3
0 -8 -4 -11 -10z"/>
<path d="M3500 11930 c0 -5 5 -10 11 -10 5 0 7 5 4 10 -3 6 -8 10 -11 10 -2 0
-4 -4 -4 -10z"/>
<path d="M3225 11900 c-14 -44 15 -76 43 -48 9 9 12 9 12 0 0 -7 16 -12 40
-12 29 0 40 -4 40 -15 0 -11 -11 -15 -40 -15 -22 0 -40 -4 -40 -10 0 -5 17
-10 38 -10 27 0 45 7 58 21 10 12 14 24 9 26 -6 2 -9 21 -7 43 3 25 0 40 -7
40 -6 0 -11 -7 -11 -15 0 -11 -11 -15 -39 -15 -22 0 -44 6 -51 15 -17 21 -37
19 -45 -5z"/>
<path d="M3660 11591 c0 -6 5 -13 10 -16 6 -3 10 1 10 9 0 9 -4 16 -10 16 -5
0 -10 -4 -10 -9z"/>
<path d="M4201 10923 c1 -53 6 -49 11 10 2 20 0 37 -4 37 -4 0 -8 -21 -7 -47z"/>
<path d="M4320 10870 c0 -5 9 -10 20 -10 11 0 20 5 20 10 0 6 -9 10 -20 10
-11 0 -20 -4 -20 -10z"/>
<path d="M5570 9080 c0 -29 4 -40 15 -40 11 0 15 -11 15 -40 l0 -40 40 0 40 0
0 40 0 40 -40 0 -40 0 0 40 c0 29 -4 40 -15 40 -11 0 -15 -11 -15 -40z"/>
<path d="M6145 8531 c-8 -13 16 -51 32 -51 18 0 16 8 -6 36 -11 14 -22 20 -26
15z"/>
<path d="M6240 8410 c0 -5 15 -10 33 -10 24 0 28 3 17 10 -20 13 -50 13 -50 0z"/>
<path d="M3160 7682 c0 -29 5 -45 15 -49 24 -9 29 3 15 39 -21 52 -30 55 -30
10z"/>
<path d="M2715 7557 c-4 -10 -5 -21 -1 -24 10 -10 18 4 13 24 -4 17 -4 17 -12
0z"/>
<path d="M2449 7443 c-8 -9 -27 -22 -44 -30 -16 -7 -37 -17 -45 -22 -8 -5 -24
-12 -35 -16 -14 -4 -16 -8 -7 -14 20 -12 4 -36 -31 -47 -18 -5 -31 -15 -30
-22 2 -6 -2 -12 -7 -12 -5 0 -10 7 -10 15 0 8 -4 15 -9 15 -17 0 -25 -23 -22
-67 2 -35 -1 -43 -14 -43 -14 0 -16 7 -13 31 4 27 2 30 -21 27 -20 -2 -25 -8
-23 -24 2 -18 -2 -20 -28 -16 -27 4 -30 2 -30 -22 0 -24 -4 -26 -40 -26 -38 0
-54 13 -27 23 9 4 9 6 0 6 -14 1 -35 -33 -26 -43 10 -10 -14 -7 -42 6 -22 10
-28 8 -48 -10 -13 -12 -28 -22 -35 -22 -6 0 -9 -6 -6 -14 8 -21 -40 -49 -76
-44 -19 3 -30 0 -30 -8 0 -7 8 -10 20 -7 12 3 20 0 20 -7 0 -9 -12 -10 -44 -6
-34 5 -45 4 -49 -9 -4 -8 -15 -15 -25 -15 -10 0 -23 -5 -29 -11 -7 -7 -22 -13
-35 -15 -75 -13 -92 -19 -121 -48 -216 -213 -384 -557 -447 -916 -7 -36 -18
-99 -25 -140 -23 -137 -47 -245 -61 -278 -8 -18 -14 -44 -14 -57 0 -36 -16
-31 -24 8 -3 17 -11 55 -17 82 -5 28 -14 86 -19 130 -5 44 -11 94 -13 110 -3
17 -8 57 -11 90 -7 61 -29 146 -47 177 -5 10 -9 22 -9 28 0 15 -62 140 -69
140 -4 0 -15 17 -26 38 -24 47 -131 156 -144 148 -6 -4 -16 2 -23 14 -17 27
-40 26 -36 -2 2 -17 -2 -23 -17 -23 -11 0 -30 -10 -43 -23 -21 -21 -32 -23
-100 -22 -96 3 -180 -9 -210 -28 -17 -11 -37 -13 -77 -8 l-55 6 0 -492 c0
-435 2 -493 16 -509 16 -18 12 -59 -7 -59 -21 0 -8 -38 16 -44 14 -4 25 -11
25 -17 0 -7 -10 -9 -25 -5 -23 6 -25 4 -25 -30 0 -33 2 -36 22 -29 13 4 34 9
48 12 14 2 41 18 60 35 46 40 86 60 113 56 17 -2 23 -11 25 -40 3 -32 0 -38
-17 -38 -11 0 -24 8 -30 17 -9 16 -11 16 -31 -2 -34 -30 -72 -102 -68 -127 2
-13 12 -24 25 -28 26 -6 19 -24 -14 -34 -22 -7 -62 8 -75 28 -4 6 -8 27 -8 46
0 27 -6 38 -25 47 l-25 11 0 -1035 0 -1036 21 19 c19 17 40 19 253 20 127 1
265 2 307 4 42 2 81 0 87 -4 6 -3 50 -7 98 -8 71 -1 90 -5 103 -20 19 -22 37
-23 45 -2 5 12 14 15 39 10 17 -4 53 -10 79 -14 43 -8 73 -23 90 -46 3 -5 21
-10 40 -11 18 0 48 -9 67 -19 25 -13 48 -17 85 -13 28 3 72 1 98 -5 39 -8 49
-15 63 -45 13 -27 21 -34 37 -30 12 4 35 -5 59 -21 34 -23 39 -32 36 -58 -3
-32 8 -35 38 -14 14 10 66 -14 93 -43 22 -23 22 -28 12 -68 -7 -24 -17 -50
-22 -56 -14 -18 -5 -16 39 6 74 37 86 35 153 -17 35 -26 79 -65 99 -87 20 -22
63 -67 97 -100 34 -33 67 -71 74 -85 7 -14 33 -49 58 -77 53 -63 109 -203 123
-308 26 -203 32 -349 20 -474 -6 -69 -9 -140 -5 -157 3 -17 1 -41 -5 -52 -13
-24 -48 -188 -55 -259 -14 -136 -30 -207 -49 -224 -7 -5 -25 -18 -40 -27 -18
-10 -34 -33 -42 -56 -13 -37 -12 -40 9 -57 20 -16 23 -26 19 -66 -4 -56 -6
-58 -31 -44 -12 6 -32 11 -46 11 -22 0 -26 4 -26 31 0 17 8 43 19 57 25 36 39
162 18 162 -25 0 -40 -29 -43 -80 -2 -28 -10 -62 -17 -77 -22 -42 -32 -97 -17
-88 7 4 4 -5 -6 -20 -17 -26 -17 -28 1 -41 10 -7 21 -11 26 -8 17 10 59 -63
59 -103 0 -36 -6 -47 -60 -99 -62 -60 -99 -86 -112 -78 -12 8 -10 48 3 61 8 8
8 13 0 17 -14 9 -31 -1 -31 -19 0 -7 -13 -23 -28 -34 -20 -14 -32 -35 -41 -73
-9 -37 -23 -62 -45 -81 -97 -87 -176 -162 -176 -169 0 -4 1244 -8 2765 -8
l2765 0 0 2225 0 2225 -32 1 c-48 1 -66 6 -93 23 -13 9 -36 16 -50 16 -15 0
-35 5 -46 10 -11 6 -36 13 -57 16 -20 2 -38 9 -40 14 -2 5 -20 14 -40 21 -20
6 -55 25 -77 40 -22 16 -59 31 -82 35 -39 6 -43 4 -52 -19 -13 -35 -28 -41
-54 -24 -12 8 -53 18 -92 22 -38 4 -88 17 -110 28 -109 57 -178 78 -253 77
-12 0 -41 14 -64 30 -22 17 -46 30 -52 30 -6 0 -37 14 -69 30 -47 23 -64 27
-84 19 -29 -11 -69 -3 -105 22 -14 11 -39 19 -55 19 -15 0 -39 9 -53 20 -14
11 -28 20 -32 20 -3 0 -44 18 -90 39 -45 21 -103 44 -128 51 -25 7 -103 41
-175 77 -84 41 -151 68 -190 74 -33 6 -107 22 -164 37 -119 31 -139 47 -103
85 50 54 173 58 281 11 29 -13 62 -24 72 -24 10 0 44 -11 75 -25 59 -26 103
-32 120 -16 12 13 120 41 155 41 15 0 45 -15 70 -35 50 -39 55 -41 75 -20 9 8
33 15 55 15 22 0 50 7 63 15 12 8 45 18 72 21 61 7 104 20 174 51 61 27 80 46
80 80 0 28 24 40 45 23 9 -8 28 -10 48 -6 18 3 48 1 65 -5 30 -10 32 -15 33
-57 1 -26 1 -50 0 -54 -2 -12 11 -9 29 7 9 8 31 16 50 17 31 3 34 0 50 -42 9
-25 22 -58 28 -73 7 -15 11 -31 10 -35 -5 -20 16 -52 45 -66 49 -23 116 -1
101 33 -4 9 -10 36 -14 61 -4 25 -18 99 -30 165 -12 66 -26 147 -31 180 -5 33
-12 68 -15 78 -3 11 4 31 19 51 l25 32 -34 28 c-26 20 -33 33 -29 47 6 19 -4
28 -38 33 -8 1 -21 7 -28 13 -8 6 -31 18 -51 26 -34 14 -38 20 -38 52 0 36 0
37 -32 28 -18 -4 -70 -8 -114 -8 -62 0 -86 4 -100 17 -17 15 -134 61 -193 75
-20 5 -23 3 -18 -11 4 -10 7 -24 7 -31 0 -7 17 -21 38 -30 49 -24 82 -63 82
-99 l0 -29 -52 8 c-29 4 -65 8 -80 9 -15 1 -39 13 -53 26 -22 20 -29 22 -43
12 -47 -34 -62 -36 -78 -14 -20 29 -45 28 -72 -3 -22 -25 -49 -25 -65 2 -11
18 -33 16 -67 -4 -25 -14 -34 -15 -69 -3 -23 7 -47 9 -58 5 -16 -7 -159 -11
-598 -15 -71 -1 -149 -1 -172 -1 -38 0 -57 12 -58 36 0 5 -14 19 -32 30 -18
11 -35 28 -38 38 -8 20 -41 23 -48 3 -5 -14 21 -46 37 -46 5 0 21 -11 37 -24
l28 -24 -37 -4 c-20 -3 -38 -1 -40 4 -2 4 -10 8 -17 8 -13 0 -145 138 -145
152 0 4 -13 2 -30 -3 -39 -14 -48 -44 -21 -78 11 -14 27 -40 35 -57 8 -17 19
-35 25 -38 13 -8 15 -56 2 -56 -5 0 -11 -8 -15 -17 -3 -10 -19 -43 -36 -73
-16 -30 -31 -66 -31 -80 -2 -25 -2 -25 -6 -1 -5 25 -50 70 -70 71 -19 0 -16
14 7 30 12 8 20 26 20 42 0 21 -5 28 -20 28 -15 0 -20 7 -20 25 0 23 -4 25
-40 25 -36 0 -40 -2 -40 -25 0 -14 -4 -25 -9 -25 -13 0 -30 55 -22 68 7 12
111 22 111 12 0 -3 16 -4 36 -2 24 3 39 0 45 -9 8 -12 11 -12 19 1 8 12 2 16
-33 21 -23 3 -65 15 -93 27 -29 11 -60 18 -71 16 -21 -6 -137 29 -159 47 -16
13 -139 17 -179 5 -27 -8 -29 -8 -17 7 12 14 11 17 -10 21 -43 9 -98 12 -98 5
0 -10 27 -19 56 -19 15 0 24 -6 24 -16 0 -12 -6 -15 -20 -10 -11 3 -29 9 -40
12 -20 6 -28 -10 -11 -20 5 -4 48 -7 96 -8 90 -3 110 -13 85 -43 -8 -10 -31
-15 -69 -15 -45 0 -59 4 -69 20 -7 11 -20 20 -30 20 -30 1 -55 27 -49 52 11
42 -6 53 -80 52 -37 -1 -58 1 -45 3 32 6 27 23 -6 23 -16 0 -37 7 -48 15 -10
8 -27 15 -37 15 -11 0 -33 10 -49 22 -30 21 -31 21 -44 3 -8 -10 -14 -22 -14
-27 0 -17 -42 -7 -47 11 -3 11 -14 22 -25 24 -15 4 -18 11 -13 26 5 17 2 21
-19 21 -13 0 -38 -8 -54 -17 -29 -16 -33 -16 -66 -1 -33 16 -35 20 -30 56 4
34 1 40 -23 53 -16 8 -33 21 -40 29 -9 12 -12 8 -18 -25 -12 -71 -15 -75 -45
-75 -16 0 -32 5 -35 10 -3 6 -19 10 -34 10 -16 0 -46 8 -67 17 -22 9 -66 17
-99 19 -95 3 -99 4 -120 20 -20 15 -20 15 -1 30 12 8 43 14 77 14 38 0 64 6
80 18 39 28 86 52 106 53 10 1 2 5 -17 8 -24 5 -49 1 -78 -12 -24 -10 -55 -17
-70 -16 -15 1 -65 -2 -110 -6 -68 -6 -89 -13 -113 -33 -29 -24 -33 -24 -95
-14 -36 6 -78 19 -92 29 -18 12 -41 17 -69 14 -40 -3 -43 -1 -60 34 -14 29
-15 38 -4 44 9 6 -1 15 -34 31 -35 17 -57 21 -89 17 -50 -7 -55 -3 -127 103
-24 36 -46 67 -49 70 -8 8 -29 43 -42 70 -7 14 -24 41 -38 60 -81 112 -101
200 -44 200 35 0 56 -23 107 -120 71 -137 73 -140 108 -171 l34 -30 11 58 c11
56 63 167 90 189 10 8 9 13 -7 22 -24 15 -25 44 -1 65 9 8 51 33 92 54 51 27
82 50 97 74 12 19 32 46 45 61 25 31 54 38 44 12 -6 -14 1 -15 51 -9 31 4 67
11 81 16 13 5 50 9 82 9 54 0 62 3 105 40 25 22 55 40 66 40 55 0 78 45 37 73
-22 14 -22 15 -5 34 22 25 13 33 -39 33 -39 0 -43 2 -49 30 -5 23 -12 30 -30
30 -12 0 -29 -7 -36 -17z m-582 -425 c-3 -8 -6 -5 -6 6 -1 11 2 17 5 13 3 -3
4 -12 1 -19z m-553 -777 c6 -10 -8 -167 -25 -291 -6 -41 -15 -115 -20 -165 -4
-49 -13 -108 -20 -130 l-11 -39 -20 24 c-19 23 -20 34 -13 185 7 162 22 266
49 342 27 76 45 99 60 74z m1983 -237 c-3 -3 -15 0 -27 6 -17 9 -19 14 -10 20
13 8 47 -16 37 -26z m-163 -19 c-4 -8 -8 -15 -10 -15 -2 0 -4 7 -4 15 0 8 4
15 10 15 5 0 7 -7 4 -15z m-6 -97 c-1 -51 -2 -51 -5 -10 -3 29 -8 40 -16 35
-7 -4 -6 0 2 10 7 9 15 17 17 17 2 0 3 -24 2 -52z m796 -14 c28 -11 17 -24
-16 -20 -18 3 -42 5 -53 6 -17 2 -16 3 5 10 33 11 45 11 64 4z m-4 -204 c0 -5
-4 -10 -9 -10 -6 0 -13 5 -16 10 -3 6 1 10 9 10 9 0 16 -4 16 -10z m-3235
-181 c-40 -112 -74 -228 -81 -273 -6 -47 -5 -51 22 -73 l29 -24 -24 -19 c-32
-27 -56 -25 -80 6 -28 36 -27 86 5 170 14 38 30 82 36 98 6 15 30 58 54 95 24
36 44 71 45 76 0 6 3 5 5 -1 3 -6 -2 -31 -11 -55z m-105 -84 c0 -8 -7 -15 -15
-15 -8 0 -15 7 -15 15 0 8 7 15 15 15 8 0 15 -7 15 -15z m-116 -102 c-19 -47
-34 -101 -34 -119 0 -39 -37 -68 -74 -58 -16 4 -36 -1 -55 -12 -26 -15 -34
-16 -55 -5 -37 20 -38 35 -5 80 16 23 29 44 29 48 0 5 24 35 52 67 56 63 94
85 145 86 l31 0 -34 -87z m230 5 c-4 -13 -11 -34 -16 -48 -10 -24 -11 -24 -18
-5 -4 11 -5 27 -2 35 14 40 49 57 36 18z m106 -68 c0 -4 -9 -15 -20 -25 -20
-18 -20 -17 -20 31 l1 49 19 -24 c11 -13 20 -27 20 -31z m-407 -181 c31 -7 54
-15 52 -19 -3 -4 -29 -11 -59 -14 -30 -4 -66 -16 -79 -26 -22 -18 -27 -18 -72
-4 -27 7 -73 14 -104 15 l-56 0 60 20 c52 17 133 34 186 38 9 0 41 -4 72 -10z
m87 -129 c0 -5 -4 -10 -10 -10 -5 0 -10 5 -10 10 0 6 5 10 10 10 6 0 10 -4 10
-10z m-157 -44 c3 -8 -1 -17 -9 -20 -29 -11 -44 -6 -44 14 0 24 45 29 53 6z
m57 4 c0 -5 -7 -10 -16 -10 -8 0 -12 5 -9 10 3 6 10 10 16 10 5 0 9 -4 9 -10z
m-162 -18 c2 -7 -3 -12 -12 -12 -9 0 -16 7 -16 16 0 17 22 14 28 -4z m-94 -7
c3 -8 1 -15 -4 -15 -6 0 -10 7 -10 15 0 8 2 15 4 15 2 0 6 -7 10 -15z m987
-478 c4 -5 12 -6 18 -2 19 11 44 -15 30 -31 -22 -27 -99 7 -99 43 0 16 40 8
51 -10z m39 -119 c0 -5 -7 -8 -15 -8 -8 0 -15 3 -15 8 0 4 -14 15 -32 25 -24
14 -29 20 -18 27 13 8 80 -36 80 -52z m-189 -208 c25 0 4 -30 -33 -49 l-43
-21 -7 27 c-4 15 -5 29 -3 32 3 2 5 -1 5 -8 0 -7 10 -3 22 9 12 11 28 18 36
15 7 -3 18 -5 23 -5z m-103 -71 c2 -16 -5 -32 -18 -44 -21 -19 -22 -19 -58 0
-22 12 -38 29 -40 42 -3 19 2 22 40 26 66 6 73 4 76 -24z m4928 -249 c15 -6
24 -13 21 -16 -9 -9 -77 6 -77 16 0 13 22 13 56 0z m-5360 -201 c18 -17 26
-19 42 -10 26 14 59 14 67 1 3 -5 1 -19 -5 -30 -10 -19 -12 -19 -42 -4 -29 15
-34 15 -59 0 -31 -18 -80 -21 -96 -5 -8 8 -20 8 -45 -1 -25 -9 -40 -10 -54 -2
-18 10 -17 11 9 21 16 6 40 11 55 11 15 0 41 9 57 20 38 25 44 25 71 -1z m234
-18 c0 -6 -5 -13 -10 -16 -15 -9 -43 3 -35 15 8 13 45 13 45 1z m110 -21 c0
-11 -4 -20 -9 -20 -11 0 -22 26 -14 34 12 12 23 5 23 -14z m-601 -18 c-10 -15
-24 -18 -80 -18 -64 1 -82 10 -62 29 3 4 39 7 80 7 68 0 72 -1 62 -18z m2386
-1352 c-3 -23 -7 -46 -11 -52 -4 -7 -3 -8 4 -4 7 4 12 1 12 -8 0 -9 -6 -13
-15 -10 -17 7 -24 -17 -28 -98 -2 -32 -7 -61 -11 -65 -5 -5 -5 48 -2 117 6
109 10 127 28 143 11 9 22 17 23 17 2 0 2 -18 0 -40z m-32 -280 c8 -38 1 -57
-24 -63 -15 -4 -19 0 -19 24 0 16 5 29 10 29 6 0 10 9 10 20 0 31 17 24 23
-10z m-33 -171 c0 -20 -4 -28 -11 -23 -8 5 -10 -3 -5 -28 4 -21 1 -50 -8 -74
l-15 -39 0 63 c-1 64 17 144 31 136 4 -3 8 -19 8 -35z m-18 -244 c5 -16 6 -41
3 -55 -4 -19 -3 -21 5 -10 8 12 10 11 10 -7 0 -14 -6 -23 -15 -23 -16 0 -15 3
-20 -198 -1 -46 -7 -88 -14 -95 -6 -6 -11 -32 -11 -58 l0 -47 -40 10 c-45 12
-47 19 -29 98 12 50 26 147 35 230 10 103 35 191 52 188 9 -2 19 -16 24 -33z"/>
<path d="M393 5325 c-25 -28 -74 -125 -71 -142 3 -15 6 -14 26 7 30 33 76 130
65 140 -4 5 -13 3 -20 -5z"/>
<path d="M2677 7398 c-11 -6 -17 -22 -17 -43 0 -38 6 -41 45 -23 20 9 25 17
21 32 -3 12 -6 24 -6 27 0 13 -26 17 -43 7z"/>
<path d="M30 7281 c0 -10 -7 -24 -15 -31 -12 -10 -15 -38 -15 -132 l0 -119 72
5 c49 3 74 9 76 18 3 7 11 28 20 46 12 26 12 38 3 58 -6 14 -11 35 -11 48 0
32 -28 108 -43 118 -7 4 -29 8 -49 8 -31 0 -38 -4 -38 -19z"/>
<path d="M1951 7283 c-38 -7 -235 -133 -209 -133 10 0 197 96 228 116 34 23
31 26 -19 17z"/>
<path d="M4794 7248 c-8 -9 -4 -19 13 -36 28 -28 33 -26 36 14 2 22 -3 29 -18
31 -11 1 -25 -3 -31 -9z"/>
<path d="M3160 7221 c0 -12 6 -21 16 -21 9 0 14 7 12 17 -5 25 -28 28 -28 4z"/>
<path d="M4222 7218 c-6 -6 -12 -27 -12 -45 0 -41 22 -53 92 -52 30 1 64 -2
77 -6 20 -6 22 -4 19 16 -2 19 -14 26 -60 38 -48 12 -57 18 -55 35 1 16 -5 22
-23 24 -14 2 -31 -3 -38 -10z"/>
<path d="M4530 7219 c0 -6 8 -22 19 -35 l19 -24 6 23 c4 14 0 26 -11 35 -21
15 -33 15 -33 1z"/>
<path d="M4728 7203 c6 -2 18 -2 25 0 6 3 1 5 -13 5 -14 0 -19 -2 -12 -5z"/>
<path d="M3388 7169 c-5 -31 18 -69 41 -69 17 0 22 39 9 67 -19 41 -44 41 -50
2z"/>
<path d="M4426 7184 c-11 -28 -6 -34 24 -34 36 0 38 12 6 33 -22 15 -25 15
-30 1z"/>
<path d="M3160 7175 c0 -8 4 -15 9 -15 5 0 11 7 15 15 3 9 0 15 -9 15 -8 0
-15 -7 -15 -15z"/>
<path d="M2676 7141 c-9 -14 4 -41 19 -41 8 0 11 8 8 20 -6 24 -19 34 -27 21z"/>
<path d="M4110 7106 c0 -28 17 -43 32 -28 6 6 5 17 -4 31 -17 28 -28 27 -28
-3z"/>
<path d="M3500 7111 c0 -6 -10 -19 -21 -30 l-21 -20 28 -28 29 -28 3 26 c2 17
11 29 23 32 32 9 22 51 -13 55 -16 2 -28 -1 -28 -7z"/>
<path d="M2517 7063 c-4 -3 -7 -15 -7 -25 0 -13 8 -18 30 -18 23 0 30 5 30 19
0 24 -37 41 -53 24z"/>
<path d="M3035 7030 c-3 -5 -22 -10 -41 -10 -27 0 -34 -4 -34 -19 0 -24 21
-32 60 -24 25 4 30 10 30 34 0 30 -5 36 -15 19z"/>
<path d="M4191 7026 l-25 -14 22 -13 c12 -8 36 -33 54 -56 34 -47 36 -47 58
-33 13 8 12 12 -6 24 -12 9 -31 36 -43 61 -23 49 -25 50 -60 31z"/>
<path d="M3854 7019 c-7 -12 12 -29 34 -29 19 0 14 18 -7 30 -14 7 -22 7 -27
-1z"/>
<path d="M5410 7002 c0 -5 9 -12 21 -15 13 -3 19 -1 16 6 -5 15 -37 22 -37 9z"/>
<path d="M3520 6992 c0 -10 41 -35 47 -28 9 8 -17 36 -33 36 -8 0 -14 -3 -14
-8z"/>
<path d="M2160 6976 c0 -16 27 -29 41 -20 19 11 9 34 -16 34 -15 0 -25 -6 -25
-14z"/>
<path d="M2328 6983 c-27 -7 -19 -34 14 -46 19 -7 61 29 52 45 -5 8 -36 9 -66
1z"/>
<path d="M4900 6966 c-5 -15 -17 -26 -28 -26 -19 0 -65 -44 -75 -71 -3 -9 2
-27 10 -39 15 -21 21 -22 84 -16 62 7 69 5 81 -13 17 -28 44 -26 85 5 32 24
34 29 31 77 l-3 52 -62 -2 c-60 -3 -62 -2 -65 25 -4 38 -44 44 -58 8z m145
-86 c-3 -5 -15 -10 -26 -10 -10 0 -19 5 -19 10 0 6 12 10 26 10 14 0 23 -4 19
-10z"/>
<path d="M4637 6966 c-7 -18 23 -30 37 -16 8 8 7 14 -4 20 -21 13 -27 12 -33
-4z"/>
<path d="M5349 6961 c-26 -10 -6 -51 26 -51 29 0 31 7 7 36 -11 14 -23 19 -33
15z"/>
<path d="M2557 6946 c-6 -16 2 -28 14 -20 12 7 11 34 0 34 -5 0 -11 -6 -14
-14z"/>
<path d="M4314 6949 c-10 -18 11 -30 35 -21 l23 8 -26 12 c-17 8 -27 8 -32 1z"/>
<path d="M4585 6950 c3 -5 8 -10 11 -10 2 0 4 5 4 10 0 6 -5 10 -11 10 -5 0
-7 -4 -4 -10z"/>
<path d="M5140 6930 c0 -5 7 -10 15 -10 8 0 15 5 15 10 0 6 -7 10 -15 10 -8 0
-15 -4 -15 -10z"/>
<path d="M3224 6905 c-3 -8 -3 -19 1 -25 11 -18 25 -11 25 15 0 27 -17 34 -26
10z"/>
<path d="M2160 6876 c0 -9 30 -14 35 -6 4 6 -3 10 -14 10 -12 0 -21 -2 -21 -4z"/>
<path d="M2998 6873 c7 -3 16 -2 19 1 4 3 -2 6 -13 5 -11 0 -14 -3 -6 -6z"/>
<path d="M2140 6851 c0 -15 58 -53 76 -49 14 3 14 5 -2 24 -20 23 -74 41 -74
25z"/>
<path d="M2076 6813 c-3 -3 -3 -23 0 -45 6 -33 4 -38 -13 -38 -51 0 -81 13
-87 36 -8 31 -24 31 -36 -1 -5 -13 -21 -34 -35 -47 -14 -12 -25 -30 -25 -40 0
-18 78 -178 87 -178 2 0 21 9 43 20 29 15 42 29 48 53 6 20 14 31 23 28 16 -4
23 -4 59 1 38 6 50 16 50 44 0 24 2 25 65 21 l65 -3 0 27 c0 18 6 29 18 32 9
3 1 5 -18 5 -19 0 -29 -2 -22 -5 13 -5 7 -23 -8 -23 -13 0 -40 54 -40 80 0 11
5 20 11 20 5 0 7 5 4 10 -10 17 -25 11 -25 -9 0 -13 -10 -21 -34 -25 -35 -7
-86 1 -86 13 0 10 -37 30 -44 24z"/>
<path d="M4583 6795 c-23 -16 -36 -74 -18 -81 6 -3 25 2 41 11 16 8 38 15 50
15 25 0 62 26 51 36 -8 9 -77 34 -92 34 -6 0 -20 -7 -32 -15z"/>
<path d="M5830 6781 c-7 -11 -28 -26 -45 -32 l-30 -12 43 -8 c61 -12 94 3 90
39 -4 34 -37 41 -58 13z"/>
<path d="M3415 6780 c-15 -6 -20 -17 -20 -46 l0 -39 58 -3 c40 -2 57 1 57 9 0
7 8 21 17 31 15 16 15 20 2 33 -17 18 -85 26 -114 15z"/>
<path d="M2453 6764 c-18 -8 -33 -19 -33 -24 0 -6 13 -4 30 5 16 8 40 16 54
17 13 1 22 6 20 10 -7 11 -34 8 -71 -8z"/>
<path d="M2723 6772 c-7 -5 -14 -21 -15 -36 -2 -16 -8 -31 -15 -33 -7 -3 -13
-11 -13 -18 0 -7 -7 -18 -15 -25 -14 -11 -13 -15 5 -27 23 -16 75 -10 65 7 -4
6 9 10 29 10 40 0 79 31 74 58 -3 14 -13 16 -53 14 -57 -3 -73 13 -42 39 16
13 18 18 7 19 -8 0 -21 -4 -27 -8z"/>
<path d="M3263 6765 c-8 -23 26 -55 58 -55 29 0 49 18 32 29 -5 3 -12 14 -16
24 -8 22 -65 24 -74 2z"/>
<path d="M5611 6751 c-10 -6 -4 -12 22 -20 21 -7 37 -20 40 -32 7 -25 40 -22
45 3 6 30 -78 68 -107 49z"/>
<path d="M3920 6714 c0 -8 5 -12 10 -9 6 4 8 11 5 16 -9 14 -15 11 -15 -7z"/>
<path d="M4330 6596 c-34 -9 -45 -17 -45 -31 0 -17 8 -21 48 -23 51 -3 97 17
97 42 0 27 -30 31 -100 12z"/>
<path d="M5624 6565 c-10 -25 4 -35 31 -23 29 13 32 23 9 32 -24 9 -34 7 -40
-9z"/>
<path d="M2140 6545 c33 -19 45 -19 26 0 -8 8 -23 15 -33 15 -14 -1 -13 -4 7
-15z"/>
<path d="M5417 6533 c-13 -12 -7 -21 24 -33 23 -10 33 -10 42 -1 9 10 8 16 -7
27 -21 15 -48 18 -59 7z"/>
<path d="M4620 6521 c0 -5 7 -12 16 -15 22 -9 24 -8 24 9 0 8 -9 15 -20 15
-11 0 -20 -4 -20 -9z"/>
<path d="M3226 6485 c14 -19 33 -35 41 -35 10 0 6 10 -13 35 -14 19 -33 35
-41 35 -10 0 -6 -10 13 -35z"/>
<path d="M4398 6474 c-64 -10 -93 -19 -108 -34 -12 -12 -20 -23 -18 -24 13
-10 100 -20 133 -16 38 5 39 6 15 15 -23 8 -21 10 20 16 57 8 79 -1 56 -24
-22 -22 -21 -25 18 -35 75 -21 142 22 79 50 -15 7 -36 23 -45 34 -24 29 -49
32 -150 18z"/>
<path d="M3517 6464 c3 -8 0 -21 -7 -29 -17 -20 -7 -30 34 -33 19 -1 53 -9 76
-17 37 -13 96 -11 104 4 2 3 6 18 10 33 5 23 3 27 -25 33 -24 5 -39 1 -67 -19
l-35 -25 -29 20 c-15 11 -28 24 -28 29 0 4 -9 10 -19 13 -14 3 -18 1 -14 -9z"/>
<path d="M5512 6459 c-15 -24 -10 -34 13 -26 15 6 22 47 7 47 -4 0 -13 -9 -20
-21z"/>
<path d="M3326 6457 c-21 -15 -14 -57 9 -57 41 0 59 32 33 58 -15 15 -20 15
-42 -1z"/>
<path d="M4088 6403 c-14 -3 -18 -15 -18 -49 0 -38 2 -43 13 -32 26 26 49 67
42 78 -6 10 -9 11 -37 3z"/>
<path d="M4560 6330 c0 -6 7 -21 15 -34 13 -19 13 -25 1 -41 -11 -15 -11 -23
1 -46 12 -24 18 -27 34 -19 23 13 24 18 2 43 -13 15 -15 21 -5 24 13 5 16 35
5 47 -5 4 -8 13 -8 19 0 7 -10 13 -22 15 -13 2 -23 -2 -23 -8z"/>
<path d="M3030 6317 c-27 -9 -35 -17 -35 -37 0 -35 40 -41 51 -8 4 13 8 25 9
28 0 3 4 11 8 18 5 6 7 12 5 11 -2 0 -19 -5 -38 -12z"/>
<path d="M3131 6301 c-10 -6 -10 -10 -1 -16 13 -8 24 -1 19 14 -3 6 -10 7 -18
2z"/>
<path d="M4809 6291 c7 -5 17 -15 22 -22 6 -10 9 -8 9 9 0 16 -6 22 -22 22
-17 0 -19 -3 -9 -9z"/>
<path d="M3115 6251 c-9 -8 -5 -46 6 -61 9 -12 10 -11 6 7 -4 18 0 22 22 25
35 4 34 31 -2 32 -15 1 -30 0 -32 -3z"/>
<path d="M5840 6241 c0 -5 7 -11 15 -15 9 -3 15 0 15 9 0 8 -7 15 -15 15 -8 0
-15 -4 -15 -9z"/>
<path d="M4210 6211 c0 -6 9 -9 20 -8 11 1 20 5 20 9 0 4 -9 8 -20 8 -11 0
-20 -4 -20 -9z"/>
<path d="M5740 6200 c0 -5 5 -10 11 -10 5 0 7 5 4 10 -3 6 -8 10 -11 10 -2 0
-4 -4 -4 -10z"/>
<path d="M3782 6071 c-41 -7 -45 -22 -11 -33 32 -11 79 5 79 27 0 16 -12 17
-68 6z"/>
<path d="M5607 5963 c-32 -3 -47 -8 -44 -16 6 -18 96 -12 116 7 14 15 14 16
-4 14 -11 -1 -42 -3 -68 -5z"/>
<path d="M5106 5953 c-15 -15 -4 -33 19 -33 14 0 25 4 25 10 0 12 -35 31 -44
23z"/>
<path d="M173 3023 c-7 -2 -13 -9 -13 -15 0 -14 43 -6 48 10 4 12 -12 15 -35
5z"/>
<path d="M921 2896 c-8 -9 -21 -16 -30 -17 -10 0 -11 -2 -3 -6 6 -2 12 -13 12
-23 0 -28 17 -34 30 -10 6 11 19 20 29 20 16 0 37 27 29 36 -14 13 -56 13 -67
0z"/>
<path d="M1233 2805 c5 -28 2 -37 -14 -45 -10 -6 -19 -18 -19 -26 0 -13 7 -15
38 -9 56 10 88 45 41 45 -19 0 -21 4 -16 35 5 31 3 35 -15 35 -18 0 -20 -4
-15 -35z"/>
<path d="M295 2770 c-31 -12 -91 -75 -105 -111 -13 -30 -12 -33 22 -64 41 -39
115 -56 139 -33 8 7 33 26 56 42 23 15 45 37 48 47 4 11 11 19 16 19 5 0 9 10
9 23 0 25 -24 43 -90 69 -49 20 -65 21 -95 8z"/>
<path d="M0 2621 c0 -17 5 -31 10 -31 6 0 10 11 10 24 0 14 -4 28 -10 31 -6 4
-10 -7 -10 -24z"/>
<path d="M1182 2591 c-39 -36 -41 -69 -8 -107 l23 -28 34 22 c19 12 45 27 59
34 14 7 33 23 43 36 10 12 25 29 33 37 26 25 6 35 -74 35 -72 0 -80 -2 -110
-29z"/>
<path d="M681 2560 c-26 -54 -22 -66 19 -72 18 -2 28 -12 34 -34 8 -25 18 -34
48 -44 22 -6 42 -18 45 -26 5 -13 9 -12 32 3 18 12 44 17 88 16 47 0 63 3 68
15 3 8 1 20 -4 25 -5 5 -7 16 -4 23 3 8 -1 14 -8 15 -8 0 2 6 21 13 l35 13
-32 7 c-18 4 -47 5 -63 1 -30 -7 -116 25 -132 49 -8 12 -14 13 -70 15 -27 1
-38 6 -38 16 0 29 -15 15 -39 -35z"/>
<path d="M580 2411 c-25 -15 -54 -38 -65 -51 -11 -12 -36 -31 -57 -41 -28 -14
-35 -23 -31 -39 3 -11 10 -20 15 -20 14 0 51 20 74 42 12 11 28 21 35 22 32 7
48 19 59 47 7 16 19 29 27 29 10 0 13 6 9 16 -3 9 -6 18 -6 20 0 9 -17 2 -60
-25z"/>
<path d="M1298 2418 c-2 -13 0 -63 5 -112 6 -76 11 -93 35 -121 33 -40 48 -48
71 -35 12 6 34 4 70 -7 48 -16 55 -16 96 -1 53 20 122 73 131 101 8 26 -6 38
-56 44 -33 5 -45 2 -52 -10 -9 -18 -67 -37 -110 -37 -23 0 -28 4 -28 24 0 38
-15 67 -57 112 -60 65 -99 80 -105 42z"/>
<path d="M846 2311 c-41 -28 -106 -112 -106 -138 0 -28 3 -28 51 -5 32 14 61
48 63 74 1 9 16 23 27 24 5 1 20 2 34 3 33 1 44 29 20 47 -26 19 -55 17 -89
-5z"/>
<path d="M453 2018 c-37 -26 -46 -68 -14 -68 11 0 22 6 24 13 4 10 6 10 6 0 1
-20 19 -15 26 7 9 29 28 25 21 -4 -4 -15 0 -28 8 -35 20 -17 46 23 46 71 l0
38 -43 0 c-28 0 -53 -8 -74 -22z"/>
<path d="M607 2025 c-9 -21 2 -45 20 -45 10 0 13 9 11 27 -3 30 -23 41 -31 18z"/>
<path d="M1459 1888 c-36 -40 -43 -61 -30 -87 6 -11 11 -32 11 -48 0 -16 11
-40 25 -55 13 -14 27 -39 30 -55 4 -15 11 -38 17 -50 9 -19 14 -20 32 -11 12
6 45 12 75 13 50 2 57 6 95 48 23 25 58 52 77 60 40 16 89 70 89 97 0 28 -25
43 -49 31 -38 -21 -110 -13 -143 14 -16 14 -42 25 -58 25 -16 0 -46 11 -66 25
-49 33 -69 32 -105 -7z"/>
<path d="M2142 1898 c-16 -16 -15 -28 2 -28 19 0 27 13 17 28 -5 9 -10 9 -19
0z"/>
<path d="M878 1792 c-54 -17 -58 -24 -25 -39 25 -12 52 -2 74 26 26 34 21 35
-49 13z"/>
<path d="M731 1783 c-15 -16 -10 -26 12 -21 9 2 12 9 8 19 -5 15 -8 15 -20 2z"/>
<path d="M800 1786 c0 -9 5 -16 10 -16 6 0 10 4 10 9 0 6 -4 13 -10 16 -5 3
-10 -1 -10 -9z"/>
<path d="M2256 1783 c-4 -5 -13 -8 -19 -8 -10 0 -14 -64 -8 -117 1 -4 17 0 36
10 28 14 35 23 35 47 0 61 -20 92 -44 68z"/>
<path d="M490 1680 c-9 -6 -10 -10 -3 -10 6 0 15 5 18 10 8 12 4 12 -15 0z"/>
<path d="M2261 1535 c-13 -36 -27 -65 -32 -65 -4 0 -13 -9 -19 -21 -9 -17 -7
-31 9 -70 16 -37 19 -54 11 -68 -5 -11 -10 -39 -10 -64 0 -32 -8 -56 -31 -90
l-30 -46 20 -20 c12 -12 21 -30 21 -41 0 -11 5 -20 10 -20 6 0 10 17 10 38 0
25 8 46 25 66 14 17 28 41 30 55 3 14 10 46 17 71 15 59 17 340 2 340 -6 0
-21 -29 -33 -65z"/>
<path d="M979 1538 c-1 -7 -2 -17 -3 -23 0 -5 -12 -27 -24 -48 -38 -60 -13
-91 33 -41 30 32 42 88 25 109 -15 18 -30 19 -31 3z"/>
<path d="M442 1496 c-7 -16 -8 -26 -1 -26 12 0 22 25 17 41 -2 6 -9 0 -16 -15z"/>
<path d="M165 1487 c-44 -5 -87 -13 -95 -18 -8 -5 -23 -12 -32 -15 -22 -8 -23
-42 -4 -89 8 -19 17 -35 19 -35 2 0 18 11 37 25 19 14 46 25 61 25 47 0 85 11
113 34 24 18 26 25 17 47 -12 34 -21 36 -116 26z"/>
<path d="M649 1272 c0 -4 -2 -38 -3 -77 -3 -69 -3 -70 35 -106 29 -28 45 -35
73 -34 42 1 60 16 62 53 1 15 5 53 9 84 11 80 3 88 -96 87 -43 0 -79 -4 -80
-7z"/>
<path d="M1 1214 c0 -11 3 -14 6 -6 3 7 2 16 -1 19 -3 4 -6 -2 -5 -13z"/>
<path d="M0 1160 c0 -23 4 -24 32 -9 17 9 18 13 7 20 -23 15 -39 10 -39 -11z"/>
<path d="M951 1136 c-20 -24 -9 -51 23 -54 43 -5 50 11 18 41 -25 24 -31 26
-41 13z"/>
<path d="M921 1009 c-23 -9 -23 -12 -16 -83 11 -124 -10 -149 -147 -171 -43
-7 -49 -14 -53 -63 -2 -20 -5 -46 -6 -57 -3 -15 1 -20 17 -20 11 0 28 -6 36
-13 30 -25 146 -12 174 19 22 24 34 24 34 -1 0 -11 4 -20 9 -20 5 0 16 -2 23
-5 25 -10 39 40 32 119 -8 95 12 113 88 81 12 -4 25 1 43 19 35 36 32 47 -15
44 -44 -2 -42 -4 -56 37 -11 35 -38 40 -42 8 -4 -31 -52 -33 -52 -3 0 19 36
60 52 60 4 0 8 7 8 15 0 8 -3 14 -7 13 -5 -1 -17 3 -28 8 -33 18 -68 23 -94
13z"/>
<path d="M311 964 c0 -11 3 -14 6 -6 3 7 2 16 -1 19 -3 4 -6 -2 -5 -13z"/>
<path d="M2152 944 c-2 -29 4 -31 17 -5 8 14 7 20 -2 24 -8 3 -14 -4 -15 -19z"/>
<path d="M1310 935 c0 -8 7 -15 16 -15 14 0 14 3 4 15 -7 8 -14 15 -16 15 -2
0 -4 -7 -4 -15z"/>
<path d="M360 739 c0 -18 33 -46 38 -31 2 6 15 12 28 12 16 0 23 4 18 11 -3 6
-15 9 -25 6 -10 -3 -22 -1 -25 4 -7 13 -34 11 -34 -2z"/>
<path d="M1358 648 c-39 -45 -42 -74 -12 -109 8 -8 14 -21 14 -27 0 -10 38
-28 44 -20 1 1 10 14 19 28 9 13 17 19 17 12 0 -7 5 -10 10 -7 14 8 13 68 -1
82 -6 6 -14 26 -18 45 -10 46 -30 45 -73 -4z"/>
<path d="M346 646 c-4 -20 -4 -45 -1 -55 5 -16 9 -17 30 -7 14 6 25 16 25 23
0 6 10 19 22 27 12 9 19 19 15 23 -12 11 -40 13 -53 2 -9 -7 -15 -5 -22 7 -8
13 -11 10 -16 -20z"/>
<path d="M1015 397 c0 -93 6 -107 41 -107 29 0 62 26 41 33 -8 2 -12 24 -11
65 1 43 -3 62 -11 62 -7 0 -18 7 -25 15 -27 32 -35 16 -35 -68z"/>
<path d="M1380 465 c0 -8 5 -15 10 -15 6 0 10 7 10 15 0 8 -4 15 -10 15 -5 0
-10 -7 -10 -15z"/>
<path d="M595 380 c-9 -16 -11 -30 -6 -30 5 0 13 10 17 23 4 12 12 25 18 29 8
6 7 8 -1 8 -7 0 -19 -13 -28 -30z"/>
<path d="M1596 363 c-12 -12 -6 -43 9 -43 8 0 15 9 15 19 0 21 -13 34 -24 24z"/>
<path d="M818 89 c-33 -19 -39 -44 -17 -68 16 -17 31 -21 84 -21 53 0 65 3 65
16 0 25 -41 76 -56 70 -8 -3 -14 -1 -14 4 0 13 -40 12 -62 -1z"/>
</g>
</svg>
