<svg width="53" height="98" fill="none" xmlns="http://www.w3.org/2000/svg">
<path d="M0 12799 c1 -3182 1 -3201 20 -3196 11 3 18 1 14 -4 -3 -5 -11 -9
-19 -9 -12 0 -14 -165 -12 -1092 l2 -1093 22 -3 c13 -2 27 5 37 20 15 21 15
24 -1 36 -17 13 -17 14 -1 26 20 14 26 96 8 96 -5 0 -10 -16 -10 -36 0 -21 -4
-33 -10 -29 -5 3 -10 23 -9 43 0 29 7 42 30 60 16 13 35 25 42 26 6 1 21 7 32
13 16 9 17 14 6 26 -10 13 -9 15 6 11 15 -4 17 -13 15 -50 l-4 -44 36 0 c32 0
36 -3 36 -25 0 -22 4 -25 40 -25 l40 0 0 -52 c-1 -52 -2 -53 -38 -69 -20 -8
-54 -23 -75 -32 -21 -9 -43 -17 -49 -17 -25 0 -158 -56 -158 -66 0 -14 52 -21
109 -16 51 5 54 22 4 22 l-38 1 50 20 c28 11 66 21 86 22 21 1 35 5 32 10 -2
4 4 10 14 13 10 3 26 10 36 15 23 13 37 2 17 -12 -11 -8 -12 -12 -2 -16 6 -2
12 -16 12 -29 0 -22 -4 -24 -42 -24 -36 -1 -40 -2 -25 -11 11 -6 30 -9 43 -6
21 4 24 1 24 -27 0 -74 22 -319 36 -406 9 -52 27 -138 41 -190 14 -52 26 -102
27 -110 1 -12 -20 -14 -139 -12 -77 1 -173 5 -213 8 -66 6 -72 5 -72 -12 0
-17 9 -19 77 -19 43 0 142 -1 220 -3 137 -2 142 -3 148 -24 17 -54 97 -228
105 -228 4 0 10 -9 13 -20 3 -11 2 -20 -2 -20 -10 0 -47 41 -54 60 -4 10 -6 8
-6 -7 -1 -12 4 -25 9 -28 15 -9 12 -25 -5 -25 -8 0 -15 4 -15 9 0 5 -39 12
-87 16 -49 4 -94 12 -102 18 -10 9 -18 6 -33 -13 -19 -23 -19 -24 -1 -31 16
-7 15 -8 -4 -8 -14 -1 -23 5 -23 14 0 11 -11 15 -35 15 -20 0 -49 7 -65 15
-16 8 -39 17 -52 19 -13 1 -24 9 -24 17 -1 8 -2 22 -3 32 0 9 -8 17 -16 17 -8
0 -15 6 -16 13 0 6 -3 21 -5 32 -3 11 -7 40 -9 64 -2 24 -7 46 -10 49 -3 3 -5
-558 -5 -1246 l0 -1252 31 0 c17 0 28 -4 24 -10 -3 -5 -1 -10 4 -10 6 0 11 -8
11 -17 0 -14 2 -15 9 -5 9 14 25 3 101 -71 22 -20 44 -37 50 -37 5 0 10 -6 10
-14 0 -15 71 -29 80 -15 3 4 37 2 75 -5 136 -26 607 -27 755 -2 52 9 157 21
233 28 75 6 137 15 137 20 0 8 -25 12 -45 8 -34 -6 -68 -1 -85 15 -22 20 -25
43 -11 89 5 17 15 56 22 86 7 30 21 67 32 82 17 22 18 30 7 43 -24 29 9 230
52 310 33 64 97 124 138 131 63 10 79 22 104 77 43 97 116 147 216 147 23 0
104 -9 179 -19 75 -11 152 -22 171 -24 19 -2 102 2 185 9 200 18 379 17 430
-1 65 -24 117 -19 175 15 50 30 80 38 80 22 0 -34 -45 -171 -78 -237 -22 -44
-49 -113 -60 -154 -12 -40 -22 -75 -24 -76 -15 -13 -95 -46 -138 -58 -30 -9
-94 -27 -142 -41 -53 -16 -143 -32 -230 -40 -79 -8 -177 -24 -218 -36 -41 -12
-85 -24 -97 -27 -42 -10 -23 -23 25 -17 81 10 274 43 347 59 129 30 178 31
865 30 632 -2 772 1 1178 22 79 5 146 5 148 2 2 -4 -10 -53 -27 -109 -16 -56
-28 -104 -26 -106 2 -2 19 40 38 93 23 64 41 101 57 111 19 12 110 16 580 23
306 4 573 10 592 13 19 3 94 10 165 17 181 15 447 46 465 53 9 4 31 8 50 11
47 6 136 22 160 30 59 19 -33 37 -115 23 -22 -3 -78 -9 -124 -13 -75 -5 -83
-4 -71 10 10 12 10 15 -1 15 -9 0 -10 3 -3 8 6 4 13 15 17 25 4 9 19 22 34 28
98 39 103 41 103 24 0 -8 5 -15 10 -15 6 0 10 5 10 10 0 6 14 10 30 10 23 0
30 -4 30 -20 0 -11 4 -20 9 -20 13 0 22 16 14 24 -3 3 -8 19 -10 36 -2 24 1
30 17 30 11 0 20 -5 20 -10 0 -13 52 13 70 35 11 13 11 21 2 36 -15 24 -8 39
18 39 14 0 18 5 13 16 -5 14 -1 16 20 12 22 -4 30 1 47 28 10 19 24 34 30 34
13 0 13 63 0 76 -6 6 6 18 35 34 25 14 45 31 44 40 0 10 -2 11 -6 2 -2 -6 -9
-10 -14 -6 -5 3 13 28 41 56 27 28 47 54 45 58 -8 13 6 40 21 40 14 0 18 12
14 40 -1 8 -32 44 -68 79 -37 36 -59 61 -49 58 24 -9 145 -37 159 -37 6 0 8 9
5 20 -3 13 0 20 10 20 8 0 12 4 8 10 -3 5 9 13 27 18 26 7 34 5 40 -7 4 -9 7
-11 7 -3 1 6 11 12 22 12 24 0 48 26 49 51 0 17 -60 79 -77 79 -6 0 -16 6 -22
14 -17 20 6 26 44 12 43 -16 66 -14 79 9 6 10 19 26 30 35 16 14 17 17 2 29
-16 14 -23 61 -8 61 4 0 6 15 4 34 -2 18 1 37 7 40 17 11 -6 46 -29 46 -10 0
-27 13 -36 29 -20 34 -24 36 -199 102 -71 27 -143 56 -160 63 -44 20 -178 61
-277 85 -79 19 -89 19 -117 5 -38 -19 -87 -11 -94 15 -2 10 2 36 9 57 7 21 11
40 9 43 -3 2 2 16 10 30 19 34 43 111 51 161 6 34 10 39 28 35 37 -9 51 10 51
70 0 60 5 65 34 36 12 -12 41 -21 87 -26 38 -4 78 -9 89 -10 11 -2 92 -14 180
-29 216 -35 201 -37 213 32 l9 57 2 -62 c0 -35 4 -63 9 -63 4 0 91 -13 193
-28 103 -15 192 -26 198 -24 6 2 11 11 12 20 0 12 3 11 9 -5 6 -14 21 -24 42
-28 110 -19 367 -58 388 -59 24 -1 25 3 31 64 4 36 17 163 30 282 12 120 20
220 16 224 -3 3 -86 19 -184 35 -98 16 -227 38 -288 49 -60 11 -168 29 -240
40 -71 11 -152 25 -180 30 -27 5 -126 20 -220 35 -144 22 -405 64 -495 79 -14
3 -25 5 -25 6 0 1 -14 3 -31 5 -18 3 -85 13 -150 24 -318 53 -683 112 -714
116 -38 4 -198 31 -242 41 -42 9 -34 24 12 24 l40 0 -20 40 c-11 22 -24 40
-28 40 -4 0 -13 15 -20 32 -6 18 -25 49 -42 68 -27 32 -30 41 -30 105 0 39 7
115 14 170 8 55 17 174 21 265 3 91 10 206 16 255 5 50 11 117 14 150 2 33 7
96 11 139 4 43 8 120 9 170 1 50 7 125 14 166 11 67 16 78 43 93 16 9 46 17
67 17 27 0 44 7 61 25 17 18 34 25 60 25 26 0 43 7 60 25 19 20 30 24 51 20
22 -5 31 -1 49 24 44 62 49 36 25 -123 -15 -102 -13 -142 8 -129 10 6 32 7 67
4 6 -1 10 -8 10 -16 0 -12 -13 -15 -55 -15 -30 0 -55 -4 -55 -10 0 -5 10 -10
23 -10 18 0 19 -2 7 -10 -8 -5 -10 -10 -5 -10 6 0 16 5 22 11 13 13 63 4 63
-11 0 -6 -4 -10 -10 -10 -5 0 -10 -10 -10 -22 0 -13 -3 -18 -8 -12 -11 17 -54
24 -69 12 -10 -8 -13 -6 -14 8 -1 44 -72 -226 -104 -396 -19 -102 -42 -217
-51 -256 -16 -70 -16 -72 5 -93 28 -28 29 -93 1 -121 -11 -11 -22 -15 -25 -10
-13 21 -24 8 -39 -44 -9 -30 -16 -59 -16 -65 0 -6 24 3 53 18 36 20 53 37 55
53 2 13 7 28 12 33 12 16 2 136 -15 161 -8 13 -15 25 -15 26 0 2 59 4 131 5
122 2 131 4 149 25 11 13 19 20 20 17 0 -3 -21 -64 -46 -135 -104 -296 -110
-315 -80 -284 17 19 46 94 46 120 0 11 4 20 9 20 5 0 12 15 16 33 16 79 58
188 78 202 13 9 23 11 25 5 2 -5 11 -10 20 -10 23 0 2 -17 -28 -23 -18 -3 -14
-5 15 -7 65 -4 82 -7 94 -14 6 -4 11 -1 11 7 0 18 27 30 35 17 4 -6 62 -10
133 -9 70 0 121 3 114 6 -17 7 -5 23 19 23 10 0 19 -7 19 -15 0 -10 9 -15 28
-14 15 0 21 3 14 6 -17 7 -5 23 19 23 10 0 19 5 19 10 0 6 20 10 44 10 24 0
61 6 82 14 22 7 73 17 114 21 41 4 84 12 95 18 26 13 65 18 65 7 0 -11 135 -2
170 11 36 12 94 19 280 30 160 9 181 10 218 8 9 0 37 5 62 11 54 14 172 9 178
-8 2 -7 12 -12 23 -12 12 0 16 5 13 14 -3 9 3 17 15 21 11 3 138 10 283 15
247 9 310 12 433 25 156 17 247 25 303 25 l62 0 0 65 0 65 -50 0 c-40 0 -48 3
-44 15 4 9 0 15 -10 15 -9 0 -16 7 -16 15 0 11 11 15 40 15 22 0 40 5 40 10 0
6 9 10 20 10 18 0 20 7 20 75 l0 74 -60 13 c-44 9 -60 16 -60 29 0 12 15 19
60 28 l60 12 0 570 c0 562 0 569 -20 569 -11 0 -20 5 -20 10 0 6 -17 10 -37
10 -43 0 -69 13 -59 28 3 6 6 36 7 69 0 32 3 73 6 91 5 30 8 32 44 32 35 0 39
3 39 25 0 27 9 32 28 13 9 -9 12 228 12 1070 l0 1082 -32 0 c-70 0 -76 34 -8
45 l40 7 0 199 0 200 -47 -6 c-27 -3 -163 -12 -303 -20 -141 -8 -289 -19 -330
-25 -41 -5 -142 -14 -225 -20 -82 -5 -175 -12 -205 -15 -54 -4 -254 -14 -455
-21 -55 -2 -127 -6 -160 -9 -33 -3 -85 -7 -115 -9 -30 -2 -97 -7 -148 -11 -67
-6 -110 -4 -149 5 -47 12 -56 11 -65 -1 -8 -12 -9 -12 -5 1 4 17 55 25 216 35
57 4 115 11 129 16 14 5 55 9 92 8 37 -1 72 1 77 4 5 3 52 7 104 8 51 1 98 4
104 7 5 3 27 7 50 8 160 10 223 17 240 24 26 11 157 22 265 21 46 0 87 4 90 9
4 6 18 6 37 1 40 -12 124 5 117 23 -4 10 8 11 53 4 76 -12 174 -11 185 0 5 5
25 8 43 5 41 -5 75 11 75 37 0 11 5 20 10 20 6 0 10 -6 9 -12 -4 -32 2 -38 41
-38 22 0 40 5 40 10 0 6 33 10 80 10 l80 0 -4 29 c-2 22 2 31 16 34 10 3 18 0
17 -6 -3 -27 2 -37 21 -37 23 0 27 28 5 36 -12 5 -13 10 -4 20 9 11 9 17 0 28
-9 10 -8 15 4 20 23 8 19 46 -5 46 -11 0 -20 -4 -20 -9 0 -5 -10 -11 -22 -14
-13 -2 -31 -8 -40 -12 -14 -6 -18 -2 -18 18 0 17 7 27 23 32 20 6 20 8 3 12
-10 3 -22 -1 -27 -8 -6 -10 -10 -10 -23 0 -22 18 -20 31 4 31 16 0 20 7 20 30
0 28 -2 30 -40 30 -22 0 -40 5 -40 10 0 6 14 10 30 10 17 0 30 5 30 10 0 6 9
10 21 10 16 0 20 5 17 28 -2 22 -9 28 -32 30 -19 2 -32 -2 -38 -12 -11 -20
-28 -21 -28 -1 0 8 -4 15 -10 15 -5 0 -10 -4 -10 -10 0 -5 -7 -10 -15 -10 -8
0 -15 5 -15 10 0 6 5 10 10 10 6 0 10 18 10 40 0 36 -2 40 -25 40 -18 0 -25 5
-25 20 0 26 25 26 44 -1 11 -16 29 -23 65 -27 l51 -5 0 47 0 46 -39 0 c-33 0
-40 -4 -44 -22 -3 -22 -4 -22 -15 5 -7 16 -12 44 -12 63 0 30 -3 34 -25 34
-16 0 -25 6 -25 15 0 11 11 15 40 15 29 0 40 -4 40 -15 0 -12 13 -15 60 -15
l60 0 0 40 c0 29 4 40 15 40 11 0 15 -12 16 -42 1 -24 4 -33 6 -20 3 14 12 22
24 22 19 0 19 19 19 989 l0 989 -27 5 c-33 7 -59 43 -44 61 6 7 7 23 4 37 -3
13 -2 21 2 16 5 -4 21 5 36 19 l28 26 1 189 0 189 -2362 -1 c-1707 0 -2357 -3
-2340 -11 15 -8 22 -20 22 -39 0 -15 6 -29 13 -32 9 -4 10 -7 0 -18 -18 -18
-16 -32 3 -25 23 9 43 -22 44 -67 0 -23 4 -36 10 -32 6 4 10 -8 11 -27 0 -26
2 -29 8 -14 7 18 8 18 14 2 4 -10 7 -27 7 -38 0 -17 3 -18 15 -8 13 11 15 8
15 -18 0 -19 6 -32 18 -37 16 -6 16 -7 -2 -17 -14 -8 -15 -12 -5 -18 7 -5 13
-26 13 -48 1 -22 4 -38 9 -35 4 2 7 -14 7 -35 0 -22 2 -55 5 -73 4 -28 4 -30
-5 -14 -8 16 -9 14 -3 -10 5 -16 7 -66 7 -110 l-2 -80 9 60 c12 83 19 93 12
16 -4 -47 -2 -65 8 -71 11 -7 11 -17 1 -55 -15 -55 -15 -76 -2 -55 7 11 10 7
10 -17 0 -41 -27 -45 -33 -5 l-4 27 -2 -27 c0 -18 6 -31 19 -38 14 -8 20 -21
20 -46 0 -19 9 -51 19 -72 16 -31 20 -68 25 -241 3 -112 10 -209 15 -215 9
-11 51 -97 51 -103 0 -3 -4 -1 -10 2 -5 3 -10 -3 -10 -15 0 -12 3 -19 8 -17 4
3 13 -1 19 -9 9 -8 9 -15 2 -19 -12 -8 7 -35 26 -35 16 0 25 -22 25 -59 0 -14
7 -36 15 -48 10 -14 12 -24 5 -28 -15 -9 -12 -45 4 -45 16 0 27 -89 16 -129
-3 -14 -1 -48 7 -76 7 -27 13 -65 13 -82 0 -20 5 -33 13 -33 19 0 41 -40 28
-53 -16 -16 -13 -36 8 -63 14 -18 17 -34 13 -70 -3 -27 0 -49 5 -53 6 -3 18
-23 26 -43 9 -21 21 -38 26 -38 16 0 13 -37 -3 -52 -8 -8 -12 -28 -9 -58 l4
-45 -30 35 c-17 19 -31 40 -31 45 0 6 -9 18 -20 28 -11 9 -20 24 -20 32 0 8
-4 15 -10 15 -5 0 -10 5 -10 10 0 13 -81 144 -92 148 -4 2 -8 9 -8 15 0 7 -12
26 -26 42 -15 17 -37 47 -50 68 -13 20 -29 37 -34 37 -5 0 -15 18 -21 40 -7
22 -15 40 -19 40 -4 0 -13 14 -20 30 -7 17 -35 53 -61 80 -27 28 -43 50 -36
50 7 0 5 5 -5 10 -9 6 -19 23 -23 39 -3 16 -12 35 -20 41 -8 6 -17 25 -20 41
-4 16 -10 29 -14 29 -3 0 -15 17 -26 38 -18 32 -50 74 -93 118 -7 7 -11 18
-10 25 2 6 -3 14 -9 16 -8 3 -13 -3 -13 -14 -1 -34 -23 17 -24 55 -1 29 -5 36
-26 39 -13 2 -27 8 -30 14 -4 5 -15 7 -26 3 -16 -5 -17 -4 -4 6 11 9 12 13 3
17 -7 2 -13 13 -13 23 0 10 -4 22 -10 25 -6 4 -10 -9 -10 -32 0 -28 -3 -34
-10 -23 -6 10 -10 11 -10 3 0 -19 -40 -16 -47 4 -4 9 -1 19 5 21 7 2 12 17 12
33 0 24 -4 29 -24 29 -13 0 -26 -6 -29 -12 -4 -10 -7 -10 -18 0 -7 6 -23 12
-36 12 -18 0 -23 6 -23 25 0 21 -5 25 -30 25 -16 0 -30 -4 -30 -10 0 -17 -52
-11 -66 7 -7 10 -16 15 -20 11 -4 -5 1 -17 10 -27 10 -11 16 -26 13 -33 -4 -8
-6 -7 -6 5 -1 9 -8 17 -16 17 -8 0 -16 6 -16 13 -1 6 -2 17 -3 22 0 6 -16 26
-34 45 -40 42 -94 119 -97 139 -1 7 -8 19 -17 25 -13 10 -92 125 -93 136 0 3
-12 21 -28 41 -15 20 -27 38 -27 41 0 3 -25 42 -55 87 -30 45 -55 83 -55 86 0
4 -27 45 -194 288 -63 91 -121 189 -132 220 -4 9 -10 17 -15 17 -14 0 -12
-137 16 -930 3 -85 10 -333 15 -550 5 -217 12 -496 15 -620 3 -124 10 -310 15
-415 6 -104 15 -347 20 -540 16 -561 22 -732 29 -860 l6 -120 75 2 75 1 -75
-11 c-80 -13 -98 -30 -67 -65 25 -30 28 -40 10 -38 -16 1 -17 -10 -15 -109 3
-133 9 -166 26 -159 10 4 13 -6 12 -36 -1 -35 -2 -39 -13 -23 -11 15 -13 12
-13 -21 l0 -37 53 2 c28 1 56 4 61 7 11 6 119 3 125 -4 12 -12 -19 -18 -120
-25 -62 -5 -114 -11 -117 -13 -2 -3 3 -213 11 -468 9 -276 12 -467 7 -472 -5
-5 -51 -11 -102 -12 -68 -3 -96 -7 -104 -18 -6 -9 -46 -24 -90 -34 -43 -11
-116 -29 -161 -41 -64 -17 -87 -20 -103 -11 -19 10 -24 38 -9 50 4 3 9 15 13
28 5 16 3 22 -7 22 -23 0 -33 122 -28 330 2 52 -3 123 -10 157 -10 49 -10 77
-1 127 9 44 9 72 2 91 -13 34 -13 115 0 115 6 0 10 5 10 11 0 5 -4 7 -10 4 -6
-4 -9 12 -8 42 1 44 -4 184 -17 472 -4 83 -2 109 10 128 17 26 11 47 -10 39
-11 -4 -13 6 -8 47 3 29 12 69 20 91 16 48 17 83 1 88 -14 5 -27 116 -31 258
-1 52 -6 98 -11 101 -11 9 -12 76 -2 209 5 58 8 119 8 135 1 83 -14 389 -19
398 -3 5 -7 118 -8 250 -2 133 -6 249 -9 257 -3 8 0 58 8 111 9 56 11 110 7
130 -4 19 -6 50 -3 71 2 20 -1 45 -7 55 -9 15 -10 12 -11 -19 0 -20 -4 -39 -9
-42 -16 -10 -19 59 -5 113 16 61 10 200 -10 246 -12 26 -13 70 -5 155 1 8 1
51 0 95 0 44 2 94 5 112 3 17 1 39 -6 50 -10 16 -11 16 -6 1 6 -21 -2 -48 -15
-48 -13 0 -11 77 2 85 6 5 9 61 8 158 -1 84 2 170 6 191 6 28 5 37 -4 32 -6
-4 -11 -13 -11 -21 0 -8 -7 -11 -19 -8 -21 5 -19 25 5 53 9 11 13 50 13 130 0
63 3 130 7 148 4 21 2 32 -5 32 -6 0 -12 -6 -12 -12 -1 -7 -5 5 -9 27 -4 22
-5 42 -1 45 7 6 5 82 -6 208 -6 72 -5 99 5 119 10 18 11 28 3 32 -13 8 -17 56
-7 98 4 19 3 34 -3 38 -6 3 -11 15 -11 26 0 19 -18 19 -1150 19 l-1150 0 0
-3201z m2319 2359 c0 -35 -2 -39 -9 -21 -8 19 -3 63 6 63 2 0 4 -19 3 -42z m1
-200 c0 -18 -2 -20 -9 -8 -6 8 -7 18 -5 22 9 14 14 9 14 -14z m10 -70 c-1 -26
-3 -30 -10 -16 -6 9 -7 23 -4 32 9 25 14 19 14 -16z m-3 -70 c-3 -7 -5 -2 -5
12 0 14 2 19 5 13 2 -7 2 -19 0 -25z m3 -39 c0 -11 -4 -17 -10 -14 -5 3 -10
13 -10 21 0 8 5 14 10 14 6 0 10 -9 10 -21z m1420 -248 c0 -5 3 -18 6 -28 5
-16 4 -16 -10 1 -18 23 -20 36 -6 36 6 0 10 -4 10 -9z m90 -111 c0 -5 -5 -10
-11 -10 -5 0 -7 5 -4 10 3 6 8 10 11 10 2 0 4 -4 4 -10z m280 -10 c0 -5 -9
-10 -20 -10 -11 0 -20 5 -20 10 0 6 9 10 20 10 11 0 20 -4 20 -10z m636 -257
c-5 -5 -36 50 -36 64 0 4 9 -7 21 -26 11 -18 18 -35 15 -38z m34 -54 c0 -3 -8
-13 -17 -20 -11 -10 -14 -10 -9 -1 5 8 0 12 -13 12 -12 0 -21 7 -21 15 0 9 6
12 15 9 10 -4 15 0 15 12 1 18 1 18 15 0 8 -11 15 -23 15 -27z m18 -111 c1
-26 -1 -29 -9 -16 -5 9 -6 23 -3 32 9 23 11 20 12 -16z m1572 23 c0 -17 -30
-40 -45 -35 -16 6 -20 26 -8 37 10 10 53 8 53 -2z m-1540 -17 c0 -8 -5 -12
-10 -9 -6 4 -8 11 -5 16 9 14 15 11 15 -7z m-53 -206 c-2 -13 -4 -5 -4 17 -1
22 1 32 4 23 2 -10 2 -28 0 -40z m4198 -37 c3 -5 -2 -16 -10 -24 -8 -9 -15
-23 -15 -31 0 -12 -10 -16 -40 -16 -38 0 -40 -2 -40 -30 0 -37 -9 -38 -40 -5
-23 25 -23 25 -4 40 10 8 25 15 32 15 7 0 12 13 12 30 0 29 1 30 49 30 28 0
52 -4 56 -9z m-420 -31 c-4 -11 -2 -20 4 -20 6 0 11 -5 11 -11 0 -6 -6 -9 -14
-6 -9 4 -12 0 -9 -12 3 -12 -2 -20 -16 -24 -16 -4 -21 0 -21 13 0 12 -10 20
-32 24 -26 5 -30 9 -18 16 8 5 27 10 43 10 15 0 26 3 26 8 -3 16 2 22 17 22
11 0 14 -6 9 -20z m65 10 c0 -5 -7 -10 -16 -10 -8 0 -12 5 -9 10 3 6 10 10 16
10 5 0 9 -4 9 -10z m198 -18 c2 -7 -3 -12 -12 -12 -9 0 -16 7 -16 16 0 17 22
14 28 -4z m-405 -16 c10 3 17 1 17 -5 0 -6 -13 -11 -30 -11 -23 0 -28 4 -23
16 4 10 8 12 13 4 3 -6 14 -8 23 -4z m68 -112 l-9 -39 -1 50 c-1 33 2 46 9 39
7 -7 7 -24 1 -50z m-811 33 c0 -10 -10 -12 -32 -8 -32 4 -32 5 -8 12 37 11 40
10 40 -4z m110 -7 c12 -8 11 -10 -7 -10 -13 0 -23 5 -23 10 0 13 11 13 30 0z
m1010 0 c0 -5 -18 -10 -40 -10 -22 0 -40 5 -40 10 0 6 18 10 40 10 22 0 40 -4
40 -10z m-960 -20 c0 -5 -4 -10 -10 -10 -5 0 -10 5 -10 10 0 6 5 10 10 10 6 0
10 -4 10 -10z m590 -30 c0 -22 -4 -40 -10 -40 -5 0 -10 18 -10 40 0 22 5 40
10 40 6 0 10 -18 10 -40z m-95 10 c3 -5 1 -10 -4 -10 -6 0 -11 5 -11 10 0 6 2
10 4 10 3 0 8 -4 11 -10z m65 -12 c0 -18 -2 -20 -9 -8 -6 8 -7 18 -5 22 9 14
14 9 14 -14z m-1680 -18 c0 -5 -2 -10 -4 -10 -3 0 -8 5 -11 10 -3 6 -1 10 4
10 6 0 11 -4 11 -10z m1366 -14 c16 -17 19 -66 4 -66 -5 0 -10 14 -10 30 0 17
-4 30 -10 30 -5 0 -10 5 -10 10 0 14 9 12 26 -4z m-159 -16 c3 -10 2 -11 -4
-3 -4 6 -26 13 -48 16 -40 4 -40 4 4 3 30 -1 46 -6 48 -16z m936 13 c-13 -2
-33 -2 -45 0 -13 2 -3 4 22 4 25 0 35 -2 23 -4z m-775 -195 c-8 -120 -18 -170
-18 -90 0 31 -4 42 -15 42 -8 0 -15 5 -15 10 0 6 9 10 20 10 13 0 20 7 20 20
0 16 -7 20 -30 20 -16 0 -30 5 -30 11 0 5 -4 7 -10 4 -5 -3 -10 -23 -10 -44 0
-35 -2 -38 -25 -33 -22 4 -25 10 -25 43 0 35 3 39 25 39 16 0 25 6 25 15 0 11
11 15 40 15 38 0 40 2 40 30 0 17 3 30 8 30 4 0 4 -55 0 -122z m352 77 c0 -8
-7 -15 -15 -15 -16 0 -20 12 -8 23 11 12 23 8 23 -8z m-3514 -160 c8 -19 19
-35 24 -35 6 0 10 -16 10 -36 l0 -37 -25 37 c-14 20 -25 41 -25 45 0 5 -6 14
-14 21 -15 12 -11 40 6 40 5 0 16 -16 24 -35z m3394 -35 c0 -5 -4 -10 -10 -10
-5 0 -10 5 -10 10 0 6 5 10 10 10 6 0 10 -4 10 -10z m-60 -20 c0 -5 -4 -10
-10 -10 -5 0 -10 5 -10 10 0 6 5 10 10 10 6 0 10 -4 10 -10z m520 -60 c0 -5
-7 -10 -15 -10 -8 0 -15 5 -15 10 0 6 7 10 15 10 8 0 15 -4 15 -10z m-3780
-25 c0 -8 -4 -15 -9 -15 -5 0 -14 7 -21 15 -10 13 -9 15 9 15 12 0 21 -6 21
-15z m3775 -55 c3 -5 -3 -10 -15 -10 -12 0 -18 5 -15 10 3 6 10 10 15 10 5 0
12 -4 15 -10z m-120 -30 c-8 -9 -15 -22 -15 -28 0 -16 -8 -15 -26 2 -21 21
-17 44 9 48 38 6 50 -2 32 -22z m-495 -70 c0 -5 -4 -10 -9 -10 -6 0 -13 5 -16
10 -3 6 1 10 9 10 9 0 16 -4 16 -10z m706 -97 c-10 -10 -19 5 -10 18 6 11 8
11 12 0 2 -7 1 -15 -2 -18z m-3846 -272 c0 -5 -9 -13 -20 -16 -15 -5 -20 -15
-20 -43 0 -34 1 -35 15 -16 16 21 18 17 19 -35 1 -19 7 -36 14 -38 6 -3 12 1
12 7 0 7 9 19 20 28 18 15 19 21 8 54 -13 42 -9 52 16 42 10 -4 16 -18 16 -36
0 -28 2 -30 29 -25 29 6 30 6 24 -31 -3 -20 -10 -46 -14 -57 -7 -17 -8 -16 -8
8 -1 20 -6 27 -22 27 -14 0 -19 -5 -17 -17 2 -10 10 -17 16 -15 7 1 12 -7 12
-18 0 -17 -7 -20 -40 -20 -22 0 -40 -4 -40 -9 0 -5 -10 -13 -21 -16 -23 -8
-41 9 -33 30 6 15 -31 26 -43 14 -6 -6 -10 -5 -11 3 -1 7 -5 29 -10 48 -7 32
-1 70 18 110 6 12 30 22 73 29 4 0 7 -3 7 -8z m147 -153 c-3 -8 -6 -5 -6 6 -1
11 2 17 5 13 3 -3 4 -12 1 -19z m13 -93 c0 -8 -4 -15 -10 -15 -5 0 -7 7 -4 15
4 8 8 15 10 15 2 0 4 -7 4 -15z m-43 -77 c-2 -13 -4 -3 -4 22 0 25 2 35 4 23
2 -13 2 -33 0 -45z m3543 55 c-1 -19 -19 -35 -34 -30 -26 10 -19 37 9 37 14 0
25 -3 25 -7z m-3560 -23 c0 -5 -5 -10 -11 -10 -5 0 -7 5 -4 10 3 6 8 10 11 10
2 0 4 -4 4 -10z m2720 -35 c0 -8 -9 -15 -20 -15 -11 0 -23 0 -27 -1 -17 -1
-13 20 4 24 34 9 43 7 43 -8z m-210 -26 c0 -6 -28 -12 -95 -21 -14 -2 -20 3
-20 17 0 16 8 21 40 25 37 5 75 -6 75 -21z m-6450 6 c-14 -8 -34 -14 -45 -14
-13 0 -8 5 15 14 46 18 61 18 30 0z m-173 -17 c-3 -8 -6 -5 -6 6 -1 11 2 17 5
13 3 -3 4 -12 1 -19z m4171 -86 l-4 -27 -18 36 c-18 36 -18 37 0 55 19 19 19
19 22 -9 2 -15 2 -40 0 -55z m3797 68 c-3 -5 -15 -10 -25 -10 -10 0 -22 5 -25
10 -4 6 7 10 25 10 18 0 29 -4 25 -10z m-2210 -20 c4 -6 -6 -10 -22 -10 -22 0
-25 2 -13 10 19 12 27 12 35 0z m1855 -15 c-7 -8 -18 -15 -24 -14 -7 0 -6 2 2
6 6 2 10 9 6 14 -3 5 2 9 12 9 13 0 14 -3 4 -15z m-4623 -21 c53 -21 254 -163
313 -221 30 -30 68 -57 83 -60 42 -9 53 -35 87 -218 10 -56 46 -153 67 -182
10 -14 25 -37 34 -53 12 -22 19 -26 32 -18 9 5 17 16 17 23 0 16 20 19 68 9
26 -5 31 -11 35 -43 2 -20 0 -40 -4 -45 -5 -6 -9 -17 -9 -26 0 -9 -14 -35 -31
-58 -20 -27 -29 -48 -24 -59 5 -15 13 -10 46 25 33 36 45 43 71 40 24 -2 35 3
50 23 21 28 27 104 9 122 -27 27 1 38 34 13 12 -8 21 -32 25 -62 7 -48 7 -49
15 -16 10 42 25 41 25 -3 0 -88 -86 -222 -170 -265 -43 -22 -51 -44 -71 -194
-16 -128 0 -262 49 -406 35 -101 74 -163 145 -235 92 -92 122 -150 113 -219
-3 -29 -15 -78 -26 -111 -23 -68 -25 -103 -5 -128 7 -11 11 -26 8 -35 -9 -25
-63 -80 -103 -105 -19 -11 -62 -45 -94 -74 -33 -29 -88 -67 -123 -84 -35 -17
-70 -38 -79 -46 -8 -8 -32 -17 -53 -20 -94 -13 -333 112 -440 229 -20 22 -49
55 -64 72 l-28 31 23 3 c13 2 36 -3 51 -11 36 -19 84 -11 91 16 3 12 -8 52
-25 93 -22 52 -29 85 -27 116 3 39 7 45 42 63 47 24 50 30 71 125 19 89 23
196 6 213 -6 6 -11 20 -11 30 0 31 -31 87 -49 87 -9 0 -51 -11 -94 -25 -43
-14 -88 -25 -100 -25 -25 0 -57 31 -57 55 0 9 -7 27 -17 41 -10 15 -17 50 -19
84 -1 52 -5 62 -32 85 -27 22 -29 28 -19 50 7 14 16 25 20 25 9 0 56 52 57 63
0 4 -25 7 -56 7 -36 0 -53 4 -49 11 4 5 -1 19 -10 29 -10 11 -15 28 -13 38 7
24 -10 55 -23 46 -10 -6 -38 22 -39 39 0 4 9 7 21 7 11 0 29 4 39 10 17 9 17
12 4 40 -15 30 -53 48 -73 35 -6 -3 -11 -17 -11 -30 0 -48 -37 -42 -65 9 -13
24 -16 46 -12 82 12 106 27 182 47 238 22 64 27 175 9 193 -8 8 -5 14 11 23
34 18 47 -2 55 -87 9 -102 27 -135 86 -168 50 -27 89 -71 89 -100 0 -9 -8 -29
-19 -43 -10 -15 -23 -52 -28 -82 -6 -30 -14 -64 -18 -74 -7 -16 -5 -18 9 -13
12 5 24 0 35 -15 18 -21 18 -21 43 -2 29 21 59 101 61 158 1 31 9 44 49 80 26
24 50 55 54 70 3 14 10 26 15 26 16 0 10 52 -8 65 -15 11 -14 14 5 33 32 32
28 37 -29 33 -36 -2 -49 0 -45 8 4 6 4 11 -1 11 -18 0 -40 59 -36 96 5 50 27
73 75 80 21 4 41 10 44 15 11 19 -73 56 -156 68 -47 7 -101 18 -120 25 -34 12
-35 13 -34 65 1 33 7 57 15 62 11 7 11 14 -4 38 -17 29 -17 33 -2 65 9 19 25
42 36 52 10 9 19 27 19 40 0 13 10 30 22 38 23 16 36 15 95 -10z m-2153 -100
c27 -10 18 -25 -11 -18 -37 9 -53 24 -26 24 12 0 28 -3 37 -6z m-244 -14 c0
-5 -4 -10 -10 -10 -5 0 -10 5 -10 10 0 6 5 10 10 10 6 0 10 -4 10 -10z m-440
-46 c0 -11 -6 -14 -22 -9 -39 12 -44 25 -10 25 22 0 32 -5 32 -16z m-383 -36
c-3 -8 -6 -5 -6 6 -1 11 2 17 5 13 3 -3 4 -12 1 -19z m-145 -55 c12 -14 4 -43
-11 -43 -14 0 -25 65 -15 82 6 10 9 8 12 -7 2 -11 9 -26 14 -32z m1308 18 c-9
-18 -12 -18 -40 -5 -16 9 -30 17 -30 20 0 2 18 4 40 4 37 0 40 -2 30 -19z
m6706 4 c-23 -18 -71 -23 -85 -10 -12 12 17 25 57 25 44 -1 46 -2 28 -15z
m-301 -15 c-3 -5 -13 -10 -21 -10 -8 0 -12 5 -9 10 3 6 13 10 21 10 8 0 12 -4
9 -10z m-7058 -20 c16 0 20 -5 16 -20 -7 -25 -37 -26 -69 -1 -26 20 -20 35 11
27 11 -3 30 -6 42 -6z m6521 -14 c-15 -11 -37 -13 -73 -6 -13 3 43 17 70 18
19 1 19 0 3 -12z m-6718 0 c0 -34 -32 -45 -62 -22 -27 20 -22 26 22 26 22 0
40 -2 40 -4z m1360 -11 c0 -8 -4 -15 -10 -15 -5 0 -7 7 -4 15 4 8 8 15 10 15
2 0 4 -7 4 -15z m-1574 -17 c4 -7 3 -8 -4 -4 -7 4 -12 2 -12 -3 0 -16 -33 -13
-56 4 -18 13 -16 14 23 15 23 0 45 -5 49 -12z m7994 -7 c0 -13 -46 -41 -68
-41 -26 0 -50 28 -31 34 8 2 21 7 29 9 25 9 70 7 70 -2z m-2090 -20 c0 -13
-37 -24 -51 -15 -8 4 -7 9 2 15 19 12 49 11 49 0z m1880 3 c0 -26 -84 -67
-122 -59 -26 6 -68 36 -68 50 0 2 28 2 63 -1 34 -3 73 -1 87 4 29 13 40 14 40
6z m260 -19 c0 -8 -9 -15 -20 -15 -20 0 -26 11 -13 23 12 13 33 7 33 -8z
m-6822 -9 c12 -12 -22 -26 -65 -26 -41 0 -56 14 -35 34 8 9 89 2 100 -8z
m6262 7 c0 -14 -34 -43 -52 -43 -27 0 -23 38 5 43 37 7 47 7 47 0z m-324 -36
c-4 -28 -39 -34 -72 -12 -33 21 -25 30 30 32 42 2 45 0 42 -20z m644 9 c0 -18
-16 -29 -30 -21 -13 8 -1 35 16 35 8 0 14 -6 14 -14z m-6857 -3 c-7 -2 -21 -2
-30 0 -10 3 -4 5 12 5 17 0 24 -2 18 -5z m5987 -2 c0 -15 -42 -41 -65 -41 -21
0 -45 17 -45 31 0 9 31 16 78 18 17 0 32 -3 32 -8z m-245 -21 c3 -5 -3 -10
-14 -10 -12 0 -21 -4 -21 -9 0 -5 -7 -12 -15 -15 -20 -7 -32 23 -14 35 19 12
56 11 64 -1z m-6385 -20 c0 -5 -4 -10 -9 -10 -6 0 -13 5 -16 10 -3 6 1 10 9
10 9 0 16 -4 16 -10z m-383 -32 c-3 -8 -6 -5 -6 6 -1 11 2 17 5 13 3 -3 4 -12
1 -19z m6043 13 c0 -30 -75 -49 -105 -26 -17 14 -18 17 -5 25 19 12 110 13
110 1z m180 -1 c-19 -13 -30 -13 -30 0 0 6 10 10 23 10 18 0 19 -2 7 -10z
m-476 -25 c-7 -17 -20 -20 -28 -6 -7 10 3 21 20 21 8 0 11 -6 8 -15z m-5881
-56 c28 -45 37 -71 37 -103 0 -41 -2 -44 -32 -50 -17 -3 -35 -3 -39 1 -11 12
-23 213 -13 213 5 -1 26 -28 47 -61z m1707 31 c0 -5 -5 -10 -11 -10 -5 0 -7 5
-4 10 3 6 8 10 11 10 2 0 4 -4 4 -10z m-31 -5 c-3 -2 -106 -11 -229 -19 -124
-9 -244 -18 -267 -21 -27 -4 -43 -2 -43 4 0 6 21 11 48 12 26 0 117 6 202 13
167 14 296 19 289 11z m-569 -34 c0 -4 -37 -11 -82 -15 -168 -13 -661 -36
-666 -31 -3 3 10 5 29 6 39 1 713 46 717 48 1 0 2 -3 2 -8z m487 -47 c6 -17
-44 -26 -67 -14 -12 6 -18 16 -14 21 8 13 76 7 81 -7z m-1260 0 c-3 -3 -12 -4
-19 -1 -8 3 -5 6 6 6 11 1 17 -2 13 -5z m1061 -15 c4 -23 -41 -33 -84 -19 -60
20 -42 42 31 38 37 -2 51 -7 53 -19z m-1135 4 c-13 -2 -33 -2 -45 0 -13 2 -3
4 22 4 25 0 35 -2 23 -4z m681 -19 c28 -11 17 -24 -18 -24 -18 0 -39 7 -46 15
-11 13 -8 15 18 15 17 0 37 -3 46 -6z m-164 -13 c0 -27 -73 -32 -98 -8 -15 16
-12 17 41 17 31 0 57 -4 57 -9z m6130 3 c0 -2 -9 -8 -20 -14 -20 -11 -44 -5
-36 8 4 7 56 13 56 6z m-6352 -21 c6 -19 -72 -17 -88 2 -10 12 -5 14 36 12 27
-1 49 -7 52 -14z m-174 1 c25 -10 8 -24 -29 -24 -39 0 -65 8 -65 21 0 10 70
12 94 3z m7441 -24 c-3 -5 -15 -10 -26 -10 -10 0 -19 5 -19 10 0 6 12 10 26
10 14 0 23 -4 19 -10z m-1652 -7 c-7 -2 -21 -2 -30 0 -10 3 -4 5 12 5 17 0 24
-2 18 -5z m-2013 -37 c0 -3 -4 -8 -10 -11 -5 -3 -10 -1 -10 4 0 6 5 11 10 11
6 0 10 -2 10 -4z m2902 -8 c-17 -8 -26 -8 -34 0 -9 9 -4 12 23 11 32 0 33 -1
11 -11z m-1271 -55 c-9 -16 -10 -15 -11 8 0 14 3 29 8 33 12 12 14 -22 3 -41z
m2224 27 c8 -13 -43 -32 -66 -25 -39 13 -22 25 48 34 6 0 15 -4 18 -9z m-221
-19 c7 -11 -17 -21 -52 -21 -39 0 -11 20 40 29 4 0 9 -3 12 -8z m-261 -28 c-7
-2 -19 -2 -25 0 -7 3 -2 5 12 5 14 0 19 -2 13 -5z m-4933 -47 l0 -34 -35 31
c-19 17 -35 32 -35 34 0 2 16 3 35 3 33 0 35 -2 35 -34z m4450 24 c0 -5 -7
-10 -15 -10 -8 0 -15 5 -15 10 0 6 7 10 15 10 8 0 15 -4 15 -10z m-7027 -45
c11 -22 24 -48 29 -57 10 -23 11 -158 0 -158 -12 0 -37 22 -56 50 -12 18 -16
48 -16 118 0 104 9 113 43 47z m6832 35 c-3 -5 -15 -10 -25 -10 -10 0 -22 5
-25 10 -4 6 7 10 25 10 18 0 29 -4 25 -10z m-460 -10 c4 -6 -5 -10 -20 -10
-15 0 -24 4 -20 10 3 6 12 10 20 10 8 0 17 -4 20 -10z m-195 -10 c0 -5 -12
-10 -27 -10 -22 0 -25 2 -13 10 20 13 40 13 40 0z m-222 -17 c-10 -2 -26 -2
-35 0 -10 3 -2 5 17 5 19 0 27 -2 18 -5z m-5013 -43 c0 -8 -7 -15 -15 -15 -8
0 -20 -4 -27 -8 -6 -4 -14 -3 -18 3 -4 6 -10 8 -15 5 -12 -7 -23 12 -15 26 11
16 90 7 90 -11z m-152 3 c-7 -2 -19 -2 -25 0 -7 3 -2 5 12 5 14 0 19 -2 13 -5z
m477 -29 c0 -8 -4 -14 -10 -14 -5 0 -10 4 -10 9 0 5 -3 18 -7 28 -6 16 -5 16
10 4 9 -7 17 -20 17 -27z m-966 20 c19 -7 21 -24 3 -24 -8 0 -20 -11 -27 -25
-16 -30 -39 -32 -68 -5 -41 38 -27 53 55 59 12 0 28 -2 37 -5z m726 -21 c0 -9
-6 -13 -15 -9 -8 3 -15 0 -15 -6 0 -6 -6 -6 -16 3 -14 12 -14 14 1 25 20 15
45 8 45 -13z m-295 7 c3 -5 0 -19 -8 -30 -14 -20 -14 -20 -25 4 -6 13 -8 27
-5 30 10 9 31 7 38 -4z m-641 -36 c10 -25 6 -153 -3 -129 -14 34 -24 145 -13
145 5 0 13 -7 16 -16z m1112 -24 c84 0 105 3 112 16 7 13 10 13 14 3 6 -15
125 -16 306 -4 46 3 82 2 82 -3 0 -14 -45 -20 -145 -22 -50 0 -178 -5 -285 -9
-107 -5 -276 -12 -375 -15 -99 -4 -274 -11 -388 -17 -115 -6 -211 -8 -214 -5
-16 16 20 21 159 24 138 3 151 5 155 23 6 23 19 25 27 4 5 -14 30 -15 193 -10
229 8 237 9 230 38 l-6 22 16 -22 c14 -21 23 -23 119 -23z m-1028 11 c12 -11
22 -24 22 -30 0 -10 21 -18 67 -24 41 -6 34 -14 -14 -21 -31 -4 -62 -1 -88 9
-28 10 -33 14 -17 15 26 0 27 2 7 40 -18 34 -10 38 23 11z m177 -11 c-28 -12
-45 -12 -45 0 0 6 15 10 33 9 27 0 29 -2 12 -9z m5729 -188 c12 -20 -12 -28
-69 -22 -61 6 -54 14 20 23 17 2 33 5 37 6 4 0 9 -3 12 -7z m-106 -63 c49 -17
56 -70 9 -67 -12 1 -32 -2 -44 -6 -31 -10 -38 10 -17 50 10 19 19 34 20 34 0
0 15 -5 32 -11z m120 -46 c-9 -10 -21 -45 -28 -78 -14 -70 -25 -93 -54 -116
-34 -28 -44 -9 -35 66 9 74 14 85 35 85 8 0 14 10 14 24 0 13 10 36 21 50 l22
28 20 -21 c19 -19 19 -22 5 -38z m-206 38 c-8 -5 -11 -19 -8 -37 l6 -29 -14
30 c-14 30 -8 45 19 45 6 0 4 -4 -3 -9z m128 -271 c16 -8 18 -15 10 -35 -5
-14 -6 -25 -1 -25 4 0 8 -10 7 -22 -1 -31 -44 -45 -84 -29 -24 10 -31 20 -36
53 -7 44 -3 53 29 61 35 8 56 7 75 -3z m1380 1 c0 -12 -29 -35 -36 -28 -11 10
5 37 21 37 8 0 15 -4 15 -9z m-1135 -71 c0 -29 -4 -36 -22 -38 -20 -3 -23 1
-23 31 0 38 7 49 30 45 10 -2 15 -15 15 -38z m-45 -470 c0 -5 -4 -10 -10 -10
-5 0 -10 5 -10 10 0 6 5 10 10 10 6 0 10 -4 10 -10z m700 0 c0 -5 7 -10 15
-10 11 0 15 -11 15 -40 0 -29 -4 -40 -15 -40 -11 0 -15 11 -15 40 0 22 -4 40
-10 40 -5 0 -10 5 -10 10 0 6 5 10 10 10 6 0 10 -4 10 -10z m-880 -50 c0 -40
0 -40 40 -40 39 0 40 1 40 35 0 33 2 35 35 35 25 0 44 -8 63 -25 20 -20 34
-25 57 -21 47 8 174 10 182 3 3 -4 15 -7 25 -7 10 0 18 -4 18 -10 0 -5 5 -10
10 -10 6 0 10 7 10 15 0 11 11 15 40 15 29 0 40 -4 40 -15 0 -9 9 -15 25 -15
22 0 25 -4 25 -39 0 -37 -2 -39 -37 -45 -61 -10 -95 -8 -87 6 4 7 3 8 -5 4 -6
-4 -9 -12 -6 -17 4 -5 -3 -9 -14 -9 -11 0 -23 -4 -26 -10 -3 -5 -1 -10 6 -10
8 0 8 -4 -1 -15 -7 -8 -10 -21 -7 -29 8 -19 -34 -26 -164 -26 -66 0 -109 -4
-109 -10 0 -5 -18 -10 -40 -10 -29 0 -40 4 -40 15 0 12 17 15 90 15 59 0 90 4
90 11 0 6 -7 8 -16 5 -9 -3 -64 -6 -122 -7 -59 0 -98 -4 -88 -8 33 -13 -2 -16
-104 -10 l-95 5 83 2 c74 2 82 4 82 21 0 19 -48 74 -69 79 -6 1 -11 -5 -11
-13 0 -21 -155 -22 -163 -1 -3 7 -18 12 -34 12 -26 -2 -28 -5 -31 -49 -3 -39
0 -47 15 -48 17 -1 17 -2 1 -6 -32 -8 -19 -22 25 -26 23 -2 -32 -4 -123 -5
-100 -1 -159 2 -151 7 8 5 57 7 110 4 75 -3 92 -2 78 7 -10 7 -30 9 -45 6 -21
-4 -23 -4 -7 3 11 5 36 14 55 19 l35 10 -42 1 -43 1 -2 43 -1 42 -4 -42 c-3
-35 -8 -44 -28 -49 -45 -11 -88 21 -55 41 6 3 10 31 10 61 0 47 4 59 32 89 33
37 48 44 48 21 0 -37 79 -13 80 24 0 13 23 15 160 12 l160 -3 0 -39z m967 -22
c-2 -13 -4 -3 -4 22 0 25 2 35 4 23 2 -13 2 -33 0 -45z m1163 58 c0 -2 -7 -6
-15 -10 -8 -3 -15 -1 -15 4 0 6 7 10 15 10 8 0 15 -2 15 -4z m-3615 -42 c68
-33 211 -116 227 -131 22 -23 -19 -15 -62 12 -46 29 -50 30 -50 10 0 -8 -14
-22 -32 -31 -18 -9 -38 -23 -46 -30 -35 -36 -84 -39 -125 -9 -16 12 -17 23
-11 114 8 115 2 112 99 65z m-2291 -5 c18 -14 26 -30 26 -50 0 -16 10 -43 22
-59 18 -25 20 -33 10 -55 -16 -35 -15 -60 3 -75 32 -27 5 -75 -55 -100 -19 -7
-60 -30 -90 -50 -30 -20 -75 -46 -100 -57 -46 -21 -190 -53 -236 -53 -16 0
-23 -4 -18 -12 5 -8 0 -9 -16 -5 -13 3 -31 2 -40 -3 -17 -9 -177 -39 -325 -60
-44 -7 -181 -14 -303 -16 -208 -3 -230 -5 -310 -30 -48 -15 -93 -31 -100 -37
-9 -7 -19 -4 -36 12 -16 15 -26 19 -31 11 -5 -9 30 -108 65 -185 6 -11 21 -51
36 -90 61 -166 219 -455 360 -658 246 -357 379 -488 524 -518 48 -10 218 -72
317 -115 17 -8 38 -14 46 -14 7 0 43 -15 78 -34 35 -19 83 -39 105 -46 42 -12
42 -13 37 -54 -6 -44 -13 -58 -20 -38 -6 15 -99 17 -108 2 -9 -15 -108 -1
-118 16 -4 8 -19 14 -32 14 -26 0 -34 -15 -12 -23 6 -3 -1 -6 -18 -7 l-30 -1
33 -28 c20 -17 41 -27 52 -24 16 4 17 -2 13 -71 -2 -48 0 -76 6 -76 6 0 35
-33 65 -73 30 -40 74 -86 97 -102 24 -17 61 -48 82 -69 38 -38 42 -39 111 -42
39 -1 79 -3 89 -4 54 -5 -40 -90 -100 -90 -19 0 -43 -5 -54 -11 -16 -8 -25 -5
-47 18 -15 16 -58 44 -96 63 -37 19 -79 45 -92 57 -14 12 -51 37 -84 55 -35
19 -60 40 -60 49 0 23 -77 171 -98 189 -9 8 -30 34 -46 58 -16 23 -36 42 -44
42 -25 0 -173 161 -167 181 4 12 -1 18 -18 22 -37 10 -219 178 -252 235 -10
16 -39 43 -66 60 -26 18 -50 41 -54 52 -7 21 -30 48 -157 181 -43 44 -88 101
-100 126 -12 25 -50 74 -83 110 -54 58 -91 109 -112 153 -4 8 -19 28 -35 43
-15 16 -28 34 -28 40 0 7 -14 26 -30 44 -17 18 -30 37 -30 44 0 6 -15 33 -34
59 -19 27 -42 70 -51 96 -9 27 -21 54 -26 60 -5 7 -12 27 -14 45 -2 17 -9 35
-16 40 -8 4 -10 24 -7 58 3 28 2 51 -1 51 -4 0 -7 36 -8 80 -1 44 2 80 7 80 5
0 7 6 4 14 -3 8 4 32 15 55 18 35 27 42 63 47 24 4 49 16 61 30 10 12 33 28
51 35 17 7 38 18 46 25 8 6 30 15 48 19 17 3 32 12 32 20 0 7 24 23 53 35 28
12 59 28 67 35 8 7 38 16 65 20 28 4 52 10 55 14 9 11 123 44 168 48 23 1 61
4 85 6 23 2 47 6 53 9 5 4 64 8 132 9 67 2 122 7 122 11 0 4 16 8 36 8 36 0
141 26 159 40 6 4 28 13 50 19 22 7 47 15 55 18 8 3 20 7 25 9 6 2 30 10 55
17 77 25 161 49 188 53 15 3 29 7 31 10 13 12 81 2 105 -17z m5906 -25 c0 -2
-7 -4 -15 -4 -8 0 -15 4 -15 10 0 5 7 7 15 4 8 -4 15 -8 15 -10z m-1292 -16
c-7 -19 -38 -22 -38 -4 0 10 9 16 21 16 12 0 19 -5 17 -12z m-4130 -53 c17
-14 37 -25 45 -25 22 0 33 -20 41 -68 13 -85 -32 -163 -102 -178 -15 -3 -50
-12 -78 -20 -60 -18 -104 -10 -104 17 0 25 29 97 52 131 10 15 28 53 39 85 10
32 21 64 24 71 7 20 52 14 83 -13z m416 -45 c25 -13 55 -49 70 -85 13 -32 26
-81 26 -102 0 -22 -6 -17 -48 34 -27 32 -58 81 -70 110 -21 50 -29 89 -14 68
4 -5 20 -17 36 -25z m1871 -96 c39 -86 43 -112 18 -120 -10 -3 -27 -10 -37
-16 -15 -8 -18 -7 -13 4 3 9 -1 15 -9 15 -9 0 -12 -7 -8 -19 3 -11 0 -18 -8
-18 -45 1 -95 93 -75 137 7 15 14 20 20 14 7 -7 17 -1 30 15 10 14 17 28 13
31 -7 7 13 33 25 33 5 0 24 -34 44 -76z m525 26 c0 -5 -11 -10 -25 -10 -14 0
-25 5 -25 10 0 6 11 10 25 10 14 0 25 -4 25 -10z m325 -30 c3 -5 1 -10 -4 -10
-6 0 -11 5 -11 10 0 6 2 10 4 10 3 0 8 -4 11 -10z m170 0 c4 -6 -14 -9 -47 -8
l-53 1 45 7 c25 4 46 8 47 8 1 1 5 -2 8 -8z m240 0 c3 -5 1 -10 -4 -10 -6 0
-11 5 -11 10 0 6 2 10 4 10 3 0 8 -4 11 -10z m80 0 c-3 -5 -13 -10 -21 -10 -8
0 -12 5 -9 10 3 6 13 10 21 10 8 0 12 -4 9 -10z m148 3 c-7 -2 -19 -2 -25 0
-7 3 -2 5 12 5 14 0 19 -2 13 -5z m-7163 -43 c0 -5 -4 -10 -10 -10 -5 0 -10 5
-10 10 0 6 5 10 10 10 6 0 10 -4 10 -10z m830 -130 c11 -7 11 -10 2 -10 -9 0
-10 -5 -2 -19 5 -11 10 -31 10 -44 0 -24 0 -24 -35 -9 -32 15 -35 19 -29 47
10 48 22 56 54 35z m5354 -45 c-4 -8 -8 -15 -11 -15 -2 0 -11 7 -19 15 -14 13
-13 15 10 15 18 0 24 -4 20 -15z m96 -1 c0 -2 -18 -4 -40 -4 -22 0 -40 3 -40
8 0 4 18 6 40 4 22 -2 40 -6 40 -8z m747 0 c-3 -3 -12 -4 -19 -1 -8 3 -5 6 6
6 11 1 17 -2 13 -5z m-6267 -29 c0 -17 -5 -25 -17 -25 -14 0 -15 2 -5 9 8 4
13 11 13 15 -2 15 -1 26 4 26 3 0 5 -11 5 -25z m5663 18 c-13 -2 -33 -2 -45 0
-13 2 -3 4 22 4 25 0 35 -2 23 -4z m-1453 -12 c0 -13 -94 -103 -129 -124 -47
-27 -40 0 13 55 52 55 116 93 116 69z m-2044 -77 c76 -45 114 -82 114 -109 0
-12 11 -39 25 -59 24 -35 25 -45 26 -179 1 -78 4 -207 8 -285 3 -79 3 -146 -2
-149 -7 -4 -101 63 -161 116 -105 94 -225 194 -323 268 -62 46 -115 88 -117
92 -3 4 -1 24 5 44 7 27 6 56 -6 111 -19 94 -19 136 -2 136 8 0 27 6 43 14 31
16 160 33 265 35 58 1 71 -3 125 -35z m951 -89 c53 -16 115 -71 133 -121 43
-111 -66 -224 -216 -224 -57 0 -139 44 -175 93 -23 31 -29 51 -29 89 0 83 37
129 130 161 57 20 94 21 157 2z m-2205 -9 c85 -23 137 -44 227 -92 171 -91
327 -208 625 -468 116 -102 264 -186 326 -186 10 0 22 -4 25 -10 17 -27 -114
4 -200 48 -48 24 -137 87 -200 143 -16 14 -68 60 -115 101 -247 217 -507 386
-700 454 -73 27 -67 31 12 10z m2952 -78 c12 -20 2 -44 -27 -62 -12 -8 -21 -5
-36 8 -25 23 -26 39 -5 61 20 20 53 16 68 -7z m-2514 2 c27 -17 2 -22 -54 -10
-31 6 -56 13 -56 16 0 8 95 4 110 -6z m-1687 -7 c-7 -2 -19 -2 -25 0 -7 3 -2
5 12 5 14 0 19 -2 13 -5z m1841 -8 c50 -21 45 -28 -16 -20 -71 9 -89 15 -83
26 9 14 58 11 99 -6z m-1834 -21 c0 -6 -9 -19 -19 -28 -11 -10 -17 -24 -14
-32 4 -10 -4 -14 -28 -14 -32 1 -33 1 -15 15 11 8 24 15 29 15 5 0 7 7 3 15
-3 8 -3 21 0 29 7 17 44 17 44 0z m44 0 c3 -8 3 -27 0 -41 -6 -23 -5 -25 17
-18 13 4 21 4 17 0 -9 -9 -68 -15 -68 -7 0 3 7 14 17 24 15 17 15 18 0 18 -10
0 -17 -5 -17 -12 0 -6 -2 -9 -5 -6 -4 3 -3 17 1 32 7 29 29 35 38 10z m-107
-16 c-3 -8 -6 -5 -6 6 -1 11 2 17 5 13 3 -3 4 -12 1 -19z m6088 -58 c4 -7 -54
-9 -167 -8 l-173 2 165 6 c91 3 166 7 167 8 1 1 5 -2 8 -8z m-1344 -52 c65
-61 89 -102 89 -152 0 -38 -28 -106 -43 -106 -5 0 -6 -11 -3 -24 9 -36 -15
-50 -71 -41 -162 24 -250 177 -170 296 25 37 90 79 122 79 11 0 46 -24 76 -52z
m934 42 c3 -5 1 -10 -4 -10 -6 0 -11 5 -11 10 0 6 2 10 4 10 3 0 8 -4 11 -10z
m1175 -321 c0 -5 -6 -12 -12 -14 -7 -2 -228 -6 -491 -7 -452 -3 -497 -1 -473
23 9 9 976 7 976 -2z m1110 1 c0 -5 -4 -10 -10 -10 -5 0 -10 5 -10 10 0 6 5
10 10 10 6 0 10 -4 10 -10z m95 0 c15 -6 8 -9 -27 -9 -27 -1 -48 4 -48 9 0 12
47 12 75 0z m-7935 -15 c8 -2 17 -4 20 -5 3 -1 8 -2 13 -1 4 0 7 -4 7 -9 0
-22 -42 -28 -142 -22 -41 3 -34 19 12 26 22 3 40 11 40 17 0 7 7 8 18 4 9 -4
24 -8 32 -10z m5720 3 c0 -14 -74 -21 -128 -12 -57 9 -24 24 54 24 52 0 74 -4
74 -12z m1060 2 c0 -5 -4 -10 -10 -10 -5 0 -10 5 -10 10 0 6 5 10 10 10 6 0
10 -4 10 -10z m-1204 -108 c-4 -3 -11 -1 -17 5 -8 8 -7 18 3 34 l13 24 3 -28
c2 -16 1 -31 -2 -35z m74 52 c0 -3 -7 -12 -15 -20 -13 -14 -15 -13 -16 3 0 10
-3 13 -6 6 -7 -18 -23 -16 -23 2 0 10 10 15 30 15 17 0 30 -3 30 -6z m44 -3
c3 -4 -3 -16 -14 -26 -20 -18 -25 -11 -14 19 7 18 20 21 28 7z m93 3 c-3 -3
-12 -4 -19 -1 -8 3 -5 6 6 6 11 1 17 -2 13 -5z m-2469 -60 c281 -69 514 -286
632 -589 50 -131 83 -345 84 -557 1 -171 2 -178 21 -178 28 0 124 -28 101 -29
-19 -1 -148 20 -155 25 -2 2 -7 88 -11 191 -10 228 -31 365 -77 497 -39 111
-101 239 -138 282 -5 7 -30 37 -54 68 -107 136 -297 249 -491 290 -62 14 -63
14 -22 15 24 1 73 -6 110 -15z m654 -41 c65 -36 108 -99 108 -159 0 -26 5 -46
14 -51 47 -27 175 -244 206 -350 15 -48 16 -49 56 -28 39 20 56 19 87 -6 28
-21 67 -127 67 -180 0 -25 -7 -33 -42 -49 -24 -10 -56 -30 -71 -44 l-28 -26 2
-157 c0 -87 0 -165 0 -175 -1 -9 -15 -21 -31 -27 -18 -6 -28 -6 -25 -1 4 6 2
10 -4 10 -5 0 -13 -4 -16 -10 -7 -12 -25 -13 -25 -2 1 19 31 44 54 46 l26 1 0
105 c0 323 -68 601 -192 786 -95 142 -190 217 -363 288 -32 13 -61 29 -63 34
-6 18 59 32 126 27 44 -3 79 -13 114 -32z m1595 -635 c-3 -8 -6 -5 -6 6 -1 11
2 17 5 13 3 -3 4 -12 1 -19z m-4550 -170 c-2 -13 -4 -5 -4 17 -1 22 1 32 4 23
2 -10 2 -28 0 -40z m-137 -87 c0 -23 -16 -36 -25 -21 -9 14 1 40 15 40 5 0 10
-9 10 -19z m131 -38 c-8 -15 -10 -15 -11 -2 0 17 10 32 18 25 2 -3 -1 -13 -7
-23z m1400 -94 c-8 -22 -9 -22 -9 9 1 19 5 29 10 24 5 -5 5 -19 -1 -33z m92
15 c23 -5 27 -11 25 -38 -2 -33 -23 -66 -43 -66 -23 0 -32 21 -25 61 4 21 4
39 0 39 -4 0 -11 -19 -15 -42 -8 -38 -9 -40 -13 -15 -2 16 0 36 4 45 4 10 6
21 5 25 -1 5 6 6 16 3 10 -3 30 -8 46 -12z m-2713 -20 c0 -8 -4 -12 -10 -9 -5
3 -10 10 -10 16 0 5 5 9 10 9 6 0 10 -7 10 -16z m2855 -116 c30 0 35 -1 20 -8
-23 -10 -94 -2 -112 13 -26 19 -12 27 19 11 18 -10 51 -17 73 -16z m1300 -117
c20 -4 26 -9 17 -14 -11 -8 -122 9 -122 19 0 6 70 3 105 -5z m420 -68 c11 -6
17 -14 14 -17 -6 -6 -180 22 -188 30 -10 10 155 -3 174 -13z m-3525 -28 c0 -8
-4 -15 -10 -15 -5 0 -10 7 -10 15 0 8 5 15 10 15 6 0 10 -7 10 -15z m3654 5
c17 -5 48 -12 70 -15 21 -4 36 -9 33 -12 -8 -8 -177 19 -183 29 -7 11 43 10
80 -2z m284 -50 c59 -8 95 -20 59 -20 -39 0 -173 23 -187 32 -10 6 -3 7 25 3
22 -3 68 -10 103 -15z m89 -62 c-3 -8 -6 -5 -6 6 -1 11 2 17 5 13 3 -3 4 -12
1 -19z m-3900 -20 c-3 -7 -5 -2 -5 12 0 14 2 19 5 13 2 -7 2 -19 0 -25z m4160
-30 c-3 -8 -6 -5 -6 6 -1 11 2 17 5 13 3 -3 4 -12 1 -19z m590 -100 c-3 -8 -6
-5 -6 6 -1 11 2 17 5 13 3 -3 4 -12 1 -19z m-3647 -47 c0 -5 -7 -14 -15 -21
-12 -10 -15 -10 -15 2 0 8 3 18 7 21 9 10 23 9 23 -2z m3977 -13 c-3 -8 -6 -5
-6 6 -1 11 2 17 5 13 3 -3 4 -12 1 -19z m-10 -80 c-3 -8 -6 -5 -6 6 -1 11 2
17 5 13 3 -3 4 -12 1 -19z m-2408 -170 c-14 -50 -11 -115 10 -203 25 -104 45
-234 38 -241 -3 -3 -9 16 -12 43 -4 26 -13 73 -20 103 -37 149 -47 231 -35
281 7 27 16 49 20 49 5 0 4 -15 -1 -32z m938 -55 c-3 -10 -5 -2 -5 17 0 19 2
27 5 18 2 -10 2 -26 0 -35z m1453 -14 c0 -17 7 -37 15 -45 19 -20 19 -36 -4
-125 -27 -103 -30 -109 -57 -109 -28 0 -31 -10 -38 -137 -6 -118 -32 -183 -72
-183 -15 0 -38 10 -51 22 -19 17 -23 32 -23 78 0 45 7 70 38 130 21 41 46 100
55 130 9 30 23 75 30 100 11 37 18 45 38 45 21 0 26 7 39 63 16 66 30 81 30
31z m-2785 -111 c0 -92 6 -135 30 -228 37 -146 40 -278 7 -351 -20 -46 -54
-84 -38 -43 44 112 42 199 -7 384 -36 139 -42 266 -14 318 10 17 19 32 20 32
1 0 2 -51 2 -112z m1430 81 c22 -5 56 -12 76 -14 46 -5 165 -24 202 -31 34 -7
34 -23 3 -110 -23 -64 -25 -91 -6 -79 5 3 18 39 31 80 24 82 25 82 91 49 28
-15 63 -78 74 -133 l6 -30 -108 5 c-60 2 -170 6 -244 8 -160 6 -180 10 -180
41 0 28 -17 35 -86 35 l-55 0 3 33 c2 24 8 33 26 35 30 4 28 20 -3 28 -20 5
-23 9 -14 20 9 11 6 16 -16 24 -14 5 -30 10 -35 10 -14 0 -21 17 -13 35 5 16
17 17 107 11 56 -3 119 -11 141 -17z m1191 -28 c3 -27 -3 -63 -15 -95 -10 -28
-17 -55 -15 -61 2 -5 -36 -92 -86 -192 -78 -161 -92 -183 -113 -183 -13 0 -33
10 -45 23 l-22 24 21 54 c52 132 84 206 101 230 18 26 48 148 48 193 0 13 6
28 13 34 11 9 12 0 9 -48 -4 -56 -3 -60 17 -60 23 0 52 54 55 103 2 45 28 28
32 -22z m521 17 c-3 -7 -5 -2 -5 12 0 14 2 19 5 13 2 -7 2 -19 0 -25z m-1310
-30 c-3 -8 -6 -5 -6 6 -1 11 2 17 5 13 3 -3 4 -12 1 -19z m1300 -60 c-3 -7 -5
-2 -5 12 0 14 2 19 5 13 2 -7 2 -19 0 -25z m-900 -31 c8 -8 -47 -77 -62 -77
-7 0 -15 -7 -19 -15 -3 -8 -15 -15 -26 -15 -24 0 -95 34 -105 50 -12 19 16 42
43 35 19 -5 25 -1 29 16 6 20 11 21 70 16 35 -2 67 -7 70 -10z m1290 -34 c-3
-10 -5 -4 -5 12 0 17 2 24 5 18 2 -7 2 -21 0 -30z m-397 -34 c0 -22 -4 -38 -8
-35 -8 5 -4 76 4 76 2 0 4 -18 4 -41z m-852 -38 c12 -10 14 -15 5 -18 -7 -3
-13 -13 -13 -23 0 -27 -63 -119 -82 -119 -9 -1 -22 -9 -27 -18 -14 -24 -14 -4
0 36 6 17 17 31 25 31 9 0 14 12 14 38 0 42 21 88 38 85 7 -2 13 9 13 25 2 26
2 26 6 2 2 -14 12 -31 21 -39z m-358 -96 c0 -19 -3 -35 -7 -35 -30 0 -190 33
-197 41 -6 5 -21 9 -34 9 -13 0 -20 4 -17 10 4 6 58 10 131 10 l124 0 0 -35z
m-3853 -41 c-3 -3 -12 -4 -19 -1 -8 3 -5 6 6 6 11 1 17 -2 13 -5z m4686 -30
c-9 -23 -23 -16 -23 12 0 22 2 24 14 14 8 -6 12 -18 9 -26z m-4443 -44 c0 -5
-5 -10 -11 -10 -5 0 -7 5 -4 10 3 6 8 10 11 10 2 0 4 -4 4 -10z m172 -24 c5
-7 -3 -14 -20 -18 -33 -10 -52 -4 -52 16 0 27 55 29 72 2z m-106 4 c8 0 14 -7
14 -15 0 -12 -7 -14 -27 -9 -38 9 -44 14 -37 25 3 6 13 8 21 5 8 -3 21 -6 29
-6z m-116 -35 c0 -8 -4 -15 -9 -15 -13 0 -22 16 -14 24 11 11 23 6 23 -9z
m-502 -10 c9 -9 -11 -25 -32 -25 -12 0 -27 -5 -33 -11 -8 -8 -17 -7 -34 5
l-23 15 35 16 c29 12 75 12 87 0z m32 -16 c0 -5 -4 -9 -10 -9 -5 0 -10 7 -10
16 0 8 5 12 10 9 6 -3 10 -10 10 -16z m416 -16 c-11 -11 -19 6 -11 24 8 17 8
17 12 0 3 -10 2 -21 -1 -24z m44 -13 c-18 -11 -22 -7 -14 14 5 13 10 14 18 6
8 -8 7 -13 -4 -20z m29 -44 c9 -11 9 -16 0 -21 -10 -7 -28 10 -29 28 0 12 17
8 29 -7z m-119 -28 c0 -17 3 -19 12 -10 16 16 28 15 28 -3 0 -15 -6 -18 -50
-19 -14 -1 -24 -6 -23 -13 2 -6 -7 -11 -20 -11 -91 5 -129 -15 -94 -49 13 -13
19 -14 31 -3 11 8 16 9 16 1 0 -12 -58 -71 -71 -71 -4 0 -14 -6 -21 -13 -7 -7
-35 -30 -63 -51 -39 -30 -57 -37 -82 -34 -18 2 -33 0 -33 -4 0 -19 -29 -6 -33
15 -3 16 -5 14 -6 -10 -2 -58 -18 -43 -18 17 0 33 5 60 10 60 5 0 7 6 4 14 -3
7 0 19 6 25 9 9 9 14 -1 20 -19 11 -110 5 -127 -9 -17 -14 -55 3 -55 25 0 16
42 51 73 61 12 3 29 12 37 19 19 15 109 40 117 31 3 -3 12 -1 20 5 7 7 56 13
109 15 53 1 99 5 102 8 3 4 34 6 69 6 58 0 63 -2 63 -22z m300 0 c44 -26 50
-37 20 -45 -11 -3 -20 -9 -20 -14 0 -5 -11 -19 -25 -31 -14 -12 -25 -27 -25
-33 0 -6 -10 -21 -22 -32 -32 -29 -58 -65 -58 -79 0 -37 50 -15 86 37 9 14 29
34 44 44 16 10 35 32 45 47 22 38 63 78 79 78 7 0 25 -9 39 -20 17 -14 40 -20
69 -19 42 0 69 -3 109 -16 19 -6 27 -25 10 -25 -5 0 -23 -13 -39 -30 -17 -16
-38 -30 -47 -30 -13 0 -16 -6 -11 -22 3 -13 6 -30 6 -38 1 -11 4 -10 15 4 12
16 12 22 2 28 -8 5 -5 8 10 8 12 0 25 5 28 10 3 6 15 10 26 10 11 0 32 14 46
30 14 17 28 28 31 25 3 -2 11 4 19 15 18 25 28 25 60 0 15 -12 20 -20 12 -20
-8 0 -1 -9 15 -19 16 -11 35 -17 42 -14 9 3 14 -2 14 -12 0 -11 -6 -15 -19
-10 -10 3 -31 0 -47 -7 -28 -11 -28 -12 -6 -16 18 -3 21 -6 12 -17 -23 -28 15
-47 49 -26 12 8 12 12 2 25 -12 14 -10 16 13 16 16 0 25 4 21 10 -3 6 2 10 11
10 10 0 14 -3 11 -7 -4 -3 3 -13 15 -21 16 -12 23 -12 26 -4 9 27 32 11 32
-22 0 -40 14 -54 29 -29 9 16 10 14 11 -9 0 -28 13 -37 25 -18 3 6 1 10 -4 10
-6 0 -11 5 -11 11 0 6 -9 23 -21 37 l-20 26 22 8 c27 10 35 1 50 -60 12 -43
39 -68 65 -58 10 4 14 -2 14 -20 0 -24 -2 -26 -34 -20 -36 7 -86 -1 -86 -13 0
-4 9 -7 20 -7 11 0 20 4 20 8 0 17 30 7 31 -9 0 -10 3 -13 5 -7 4 9 13 9 35 1
26 -10 29 -15 23 -41 -7 -30 1 -30 38 2 14 12 21 12 32 3 8 -7 20 -10 26 -6 5
3 10 -1 10 -11 0 -13 3 -13 18 5 13 16 21 18 32 10 11 -7 12 -12 3 -15 -7 -3
-9 -12 -6 -20 3 -8 0 -21 -7 -29 -10 -12 -9 -15 9 -15 16 0 21 7 22 28 l1 27
7 -30 c5 -24 12 -30 31 -30 20 0 25 4 22 23 -3 34 24 25 50 -16 l21 -33 -35 6
c-27 5 -37 3 -41 -9 -5 -14 5 -22 16 -13 10 6 37 -28 37 -48 0 -19 7 -23 47
-28 39 -4 50 -2 61 14 28 41 43 9 21 -48 -9 -23 -12 -25 -19 -12 -10 17 -55
15 -66 -2 -3 -5 -16 -9 -30 -9 -26 0 -32 -18 -12 -38 16 -16 19 -42 5 -42 -6
0 -1 -7 11 -16 29 -20 30 -48 1 -41 -13 4 -22 0 -26 -11 -5 -12 -9 -9 -14 12
-5 17 -4 37 2 48 6 11 8 22 5 26 -3 3 -6 0 -6 -6 0 -7 -4 -12 -10 -12 -5 0
-10 7 -10 15 0 17 -2 17 -23 9 -9 -3 -12 -14 -10 -28 5 -24 -18 -49 -25 -28
-2 7 -21 12 -43 12 -37 0 -38 -1 -32 -30 5 -29 4 -30 -30 -30 -19 0 -40 -7
-47 -15 -7 -8 -17 -11 -24 -7 -16 10 -60 9 -68 -3 -4 -5 -14 -2 -26 8 -19 17
-52 23 -52 9 0 -4 -18 -7 -40 -7 -22 0 -40 -3 -40 -7 0 -5 -8 -8 -18 -8 -10 0
-23 -5 -30 -12 -9 -9 -15 -9 -24 1 -10 11 -10 14 0 18 19 7 14 20 -9 26 -18 5
-20 2 -16 -19 6 -32 -8 -40 -26 -14 -11 16 -12 31 -6 58 l8 37 -18 -24 c-10
-13 -20 -19 -22 -13 -3 8 -13 7 -34 -4 -28 -13 -30 -18 -27 -54 3 -24 -1 -44
-9 -53 -15 -14 -53 -15 -81 -3 -9 4 -22 5 -28 1 -5 -3 -10 2 -10 13 0 16 -8
20 -42 21 -106 5 -124 6 -136 14 -7 5 -25 7 -40 6 -15 -1 -35 2 -45 6 -12 5
-22 2 -31 -11 -13 -17 -14 -17 -25 4 -6 12 -17 22 -24 22 -7 0 -23 14 -36 30
-22 30 -22 30 -51 14 -26 -16 -30 -16 -53 -1 -18 12 -27 13 -36 4 -8 -8 -11
-4 -11 16 0 24 3 27 24 21 13 -3 27 -1 30 4 3 6 -2 9 -11 7 -10 -1 -26 2 -35
7 -12 5 -18 5 -18 -2 0 -5 -4 -10 -10 -10 -5 0 -10 6 -10 14 0 17 -47 49 -52
36 -2 -6 -18 -12 -35 -14 -18 -3 -37 -7 -43 -11 -11 -7 -31 37 -27 58 1 7 -7
11 -20 10 -18 -2 -23 2 -23 20 0 17 -2 19 -9 8 -8 -12 -15 -13 -35 -3 -17 8
-27 8 -32 1 -4 -6 -12 -2 -20 10 -8 11 -21 18 -28 15 -8 -3 -17 -1 -21 5 -4 7
6 12 27 12 25 1 28 3 9 6 -13 3 -26 13 -28 24 -3 10 -13 19 -22 19 -13 0 -14
2 -2 9 12 8 12 12 -2 25 -8 9 -23 16 -32 16 -9 0 -21 13 -26 30 -6 17 -15 30
-20 30 -5 0 -9 13 -9 29 0 16 -3 31 -7 34 -5 2 -3 2 4 1 7 -2 15 1 18 6 4 6
12 10 19 10 8 0 31 16 52 36 22 20 48 40 59 44 11 5 65 40 120 79 55 38 129
87 165 107 36 21 67 40 70 44 3 4 19 12 37 18 17 6 41 20 52 31 27 27 62 27
111 -1z m-365 -68 c3 -5 1 -10 -4 -10 -6 0 -11 5 -11 10 0 6 2 10 4 10 3 0 8
-4 11 -10z m1052 -76 c-3 -3 -12 -4 -19 -1 -8 3 -5 6 6 6 11 1 17 -2 13 -5z
m-1427 -64 c0 -5 -4 -10 -10 -10 -5 0 -10 5 -10 10 0 6 5 10 10 10 6 0 10 -4
10 -10z m4789 -175 c26 -13 61 -67 61 -94 0 -15 -76 -52 -93 -45 -47 18 -46
151 1 154 2 0 16 -7 31 -15z m-4701 -147 c-6 -18 -28 -21 -28 -4 0 9 7 16 16
16 9 0 14 -5 12 -12z m1986 -83 c-4 -8 -10 -12 -15 -9 -14 8 -10 24 6 24 9 0
12 -6 9 -15z m36 -80 c-7 -8 -16 -15 -21 -15 -5 0 -9 7 -9 15 0 9 9 15 21 15
18 0 19 -2 9 -15z m-67 -15 c3 -11 1 -20 -4 -20 -5 0 -9 9 -9 20 0 11 2 20 4
20 2 0 6 -9 9 -20z m-1756 -12 c-3 -8 -6 -5 -6 6 -1 11 2 17 5 13 3 -3 4 -12
1 -19z m1683 -33 c0 -5 -5 -3 -10 5 -5 8 -10 20 -10 25 0 6 5 3 10 -5 5 -8 10
-19 10 -25z m46 -2 c-10 -10 -19 5 -10 18 6 11 8 11 12 0 2 -7 1 -15 -2 -18z
m-1640 -14 c3 -6 1 -16 -5 -22 -9 -9 -14 -8 -21 3 -5 8 -10 18 -10 23 0 11 28
8 36 -4z m1418 -27 c2 -4 -2 -15 -9 -25 -15 -20 -31 -6 -21 18 6 16 22 20 30
7z m-1294 -32 c0 -5 -4 -10 -10 -10 -5 0 -10 5 -10 10 0 6 5 10 10 10 6 0 10
-4 10 -10z m33 -15 c-7 -21 -13 -19 -13 6 0 11 4 18 10 14 5 -3 7 -12 3 -20z
m47 -4 c0 -6 -4 -13 -10 -16 -5 -3 -10 1 -10 9 0 9 5 16 10 16 6 0 10 -4 10
-9z m650 0 c0 -18 -18 -21 -30 -6 -10 13 -9 15 9 15 11 0 21 -4 21 -9z m810
-1 c0 -5 -2 -10 -4 -10 -3 0 -8 5 -11 10 -3 6 -1 10 4 10 6 0 11 -4 11 -10z
m3200 -56 c0 -2 -9 0 -20 6 -11 6 -20 13 -20 16 0 2 9 0 20 -6 11 -6 20 -13
20 -16z m-3975 -4 c3 -5 -1 -10 -9 -10 -9 0 -16 5 -16 10 0 6 4 10 9 10 6 0
13 -4 16 -10z m135 0 c0 -5 -5 -10 -11 -10 -5 0 -7 5 -4 10 3 6 8 10 11 10 2
0 4 -4 4 -10z m-1010 -188 c0 -12 -58 -34 -82 -29 -24 4 -24 4 37 25 39 13 45
14 45 4z m1739 -207 c21 -51 27 -73 19 -83 -6 -7 -13 -11 -15 -9 -7 7 -40 112
-47 147 -9 49 7 28 43 -55z m-165 -125 l-7 -55 -9 49 c-6 32 -5 53 2 60 5 5
11 30 12 56 l2 45 4 -50 c2 -27 0 -75 -4 -105z m366 74 c0 -5 14 -23 30 -39
17 -16 30 -34 30 -40 0 -17 54 -65 72 -65 10 0 18 -10 20 -22 2 -17 9 -23 26
-22 16 0 21 -4 17 -13 -3 -8 -5 -19 -5 -24 0 -6 -5 -7 -10 -4 -6 4 -8 11 -5
16 4 5 -1 9 -9 9 -10 0 -13 -6 -10 -15 4 -9 0 -15 -8 -15 -7 0 -19 14 -25 30
-13 34 -50 41 -77 14 -15 -14 -16 -14 -16 6 0 12 -9 24 -24 29 -28 11 -36 29
-36 86 0 24 -8 56 -17 73 -10 17 -14 36 -9 47 6 17 9 16 31 -10 13 -17 24 -35
25 -41z m-528 31 c0 -5 -5 -11 -11 -13 -6 -2 -11 4 -11 13 0 9 5 15 11 13 6
-2 11 -8 11 -13z m18 -115 c0 -24 -5 -40 -15 -44 -21 -8 -19 -23 5 -29 24 -6
26 -20 5 -41 -9 -8 -14 -21 -13 -28 2 -7 -4 -13 -12 -13 -8 0 -15 7 -15 15 0
8 -4 21 -8 27 -4 7 -3 22 3 33 7 13 7 26 1 38 -6 10 -8 27 -6 38 17 82 14 78
35 59 13 -12 20 -31 20 -55z m135 -177 c-4 -29 -10 -53 -14 -53 -12 0 -9 164
3 172 14 10 20 -49 11 -119z m595 36 c0 -11 -4 -18 -10 -14 -5 3 -7 12 -3 20
7 21 13 19 13 -6z m2440 11 c0 -6 -8 -13 -17 -16 -10 -3 -26 -10 -35 -15 -14
-7 -18 -5 -18 10 0 14 5 18 19 14 10 -3 22 0 25 6 9 14 26 14 26 1z m-2891
-87 c-6 -7 -8 -16 -6 -20 3 -5 -2 -17 -10 -28 -14 -18 -14 -17 -8 25 9 55 15
66 26 49 4 -7 3 -19 -2 -26z"/>
<path d="M4947 12493 c-8 -13 12 -55 23 -48 5 3 10 11 10 16 0 15 -28 41 -33
32z"/>
<path d="M3940 10856 c-20 -12 -21 -15 -7 -16 10 0 20 -7 23 -15 4 -10 14 -13
29 -9 14 3 35 -3 60 -20 66 -45 90 -22 36 34 -35 37 -102 49 -141 26z"/>
<path d="M4396 9881 c-13 -27 -16 -54 -13 -89 6 -63 11 -72 48 -72 23 0 32 6
39 26 6 16 7 31 2 38 -5 6 -12 33 -16 60 -6 46 -20 76 -36 76 -4 0 -15 -17
-24 -39z"/>
<path d="M7106 9984 c-9 -25 -7 -64 4 -64 6 0 10 18 10 40 0 43 -4 50 -14 24z"/>
<path d="M6932 9948 c-18 -18 -15 -28 8 -28 13 0 20 7 20 20 0 23 -10 26 -28
8z"/>
<path d="M7040 9893 c0 -8 14 -13 40 -13 22 0 40 4 40 9 0 5 -18 11 -40 13
-28 2 -40 0 -40 -9z"/>
<path d="M7033 9843 c-29 -11 -10 -23 37 -23 38 0 50 4 50 15 0 11 -10 15 -37
14 -21 0 -44 -3 -50 -6z"/>
<path d="M2632 7768 c-13 -13 -17 -88 -4 -88 6 0 22 27 39 68 3 7 -2 12 -12
12 -9 0 -13 5 -10 10 8 14 2 13 -13 -2z"/>
<path d="M3826 9881 c-3 -5 1 -14 8 -20 12 -10 13 -8 9 8 -6 23 -9 25 -17 12z"/>
<path d="M5132 6551 c7 -12 19 -21 26 -21 17 0 7 17 -19 31 -18 9 -19 9 -7
-10z"/>
<path d="M5170 6564 c0 -14 28 -31 39 -24 7 4 9 10 5 12 -19 10 -44 17 -44 12z"/>
<path d="M1522 5909 c2 -6 8 -10 13 -10 5 0 11 4 13 10 2 6 -4 11 -13 11 -9 0
-15 -5 -13 -11z"/>
<path d="M1600 5896 c0 -16 6 -26 15 -26 8 0 15 5 15 11 0 6 -7 17 -15 25 -13
14 -15 13 -15 -10z"/>
<path d="M2417 5804 c-4 -4 -7 -14 -7 -23 0 -11 3 -12 11 -4 6 6 10 16 7 23
-2 6 -7 8 -11 4z"/>
<path d="M2982 5598 c-14 -14 -16 -28 -3 -28 5 0 11 9 14 20 6 23 5 24 -11 8z"/>
<path d="M2850 5581 c0 -11 4 -21 9 -21 18 0 21 18 6 30 -13 10 -15 9 -15 -9z"/>
<path d="M3042 5580 c0 -14 2 -19 5 -12 2 6 2 18 0 25 -3 6 -5 1 -5 -13z"/>
<path d="M3166 5574 c-4 -9 -4 -19 -1 -22 3 -3 11 0 17 6 9 9 9 15 1 23 -7 7
-12 5 -17 -7z"/>
<path d="M2925 5570 c-3 -5 1 -10 9 -10 9 0 16 5 16 10 0 6 -4 10 -9 10 -6 0
-13 -4 -16 -10z"/>
<path d="M3085 5560 c3 -5 8 -10 11 -10 2 0 4 5 4 10 0 6 -5 10 -11 10 -5 0
-7 -4 -4 -10z"/>
<path d="M3255 5488 c-6 -39 6 -90 23 -96 7 -2 10 2 6 12 -4 11 -2 15 8 11 7
-3 22 1 33 9 20 15 20 15 -3 16 -26 0 -40 26 -23 43 19 19 12 37 -14 37 -19 0
-25 -6 -30 -32z"/>
<path d="M3170 5490 c0 -6 7 -13 15 -16 8 -4 15 -12 15 -20 0 -8 7 -14 15 -14
21 0 19 16 -7 40 -24 22 -38 26 -38 10z"/>
<path d="M2946 5461 c-4 -7 -5 -15 -2 -18 9 -9 19 4 14 18 -4 11 -6 11 -12 0z"/>
<path d="M3351 5334 c0 -11 3 -14 6 -6 3 7 2 16 -1 19 -3 4 -6 -2 -5 -13z"/>
<path d="M3270 5315 c0 -13 5 -27 10 -30 6 -3 10 -2 10 4 0 5 3 16 6 24 3 8
-2 17 -10 20 -12 5 -16 0 -16 -18z"/>
<path d="M2140 5275 c27 -14 36 -13 25 4 -3 6 -16 11 -28 11 -21 -1 -21 -1 3
-15z"/>
<path d="M2828 5243 c-16 -2 -28 -10 -28 -18 0 -10 10 -12 38 -8 20 3 40 10
43 15 3 5 21 2 40 -5 38 -16 59 -13 59 9 0 11 -15 14 -62 13 -35 -1 -75 -4
-90 -6z"/>
<path d="M2350 5220 c0 -11 7 -20 15 -20 8 0 15 9 15 20 0 11 -7 20 -15 20 -8
0 -15 -9 -15 -20z"/>
<path d="M2240 5215 c0 -9 9 -15 25 -15 16 0 25 6 25 15 0 9 -9 15 -25 15 -16
0 -25 -6 -25 -15z"/>
<path d="M2430 5220 c0 -5 5 -10 10 -10 6 0 10 5 10 10 0 6 -4 10 -10 10 -5 0
-10 -4 -10 -10z"/>
<path d="M2560 5199 c0 -5 5 -7 10 -4 6 3 10 8 10 11 0 2 -4 4 -10 4 -5 0 -10
-5 -10 -11z"/>
<path d="M2408 5173 c6 -2 18 -2 25 0 6 3 1 5 -13 5 -14 0 -19 -2 -12 -5z"/>
<path d="M2458 5173 c7 -3 16 -2 19 1 4 3 -2 6 -13 5 -11 0 -14 -3 -6 -6z"/>
<path d="M2582 5144 c1 -9 9 -19 16 -22 9 -3 13 2 10 14 -1 9 -9 19 -16 22 -9
3 -13 -2 -10 -14z"/>
<path d="M3922 15928 c16 -40 33 -82 38 -93 44 -96 124 -276 132 -298 17 -46
54 -112 63 -112 4 0 6 47 5 105 -6 182 -5 210 4 212 9 3 20 -14 31 -47 l6 -20
15 20 c10 13 14 32 10 55 -3 19 -6 83 -6 143 l0 107 -164 0 -164 0 30 -72z"/>
<path d="M3851 15508 c-1 -28 3 -38 14 -38 17 0 20 11 6 26 -5 5 -11 18 -14
29 -3 11 -5 4 -6 -17z"/>
<path d="M4170 15380 c0 -5 5 -10 10 -10 6 0 10 5 10 10 0 6 -4 10 -10 10 -5
0 -10 -4 -10 -10z"/>
<path d="M4502 15170 c0 -14 2 -19 5 -12 2 6 2 18 0 25 -3 6 -5 1 -5 -13z"/>
<path d="M4481 15164 c0 -11 3 -14 6 -6 3 7 2 16 -1 19 -3 4 -6 -2 -5 -13z"/>
<path d="M3431 15084 c0 -11 3 -14 6 -6 3 7 2 16 -1 19 -3 4 -6 -2 -5 -13z"/>
<path d="M3401 15064 c0 -11 3 -14 6 -6 3 7 2 16 -1 19 -3 4 -6 -2 -5 -13z"/>
<path d="M3507 14873 c3 -15 13 -23 27 -22 15 0 16 2 6 6 -8 4 -20 13 -27 22
-10 14 -11 13 -6 -6z"/>
<path d="M3570 14777 c0 -5 18 -29 40 -54 22 -25 40 -50 40 -54 0 -5 5 -9 10
-9 6 0 10 3 10 8 0 11 -99 119 -100 109z"/>
<path d="M3670 14745 c-12 -23 -12 -28 4 -43 18 -16 18 -16 14 4 -4 14 1 25
14 33 10 6 16 16 13 21 -11 18 -31 11 -45 -15z"/>
<path d="M3721 14698 c0 -13 4 -32 9 -43 l9 -20 0 20 c1 11 4 30 7 43 5 16 2
22 -10 22 -10 0 -16 -8 -15 -22z"/>
<path d="M3783 14680 c0 -25 2 -35 4 -22 2 12 2 32 0 45 -2 12 -4 2 -4 -23z"/>
<path d="M4566 14637 c3 -10 9 -15 12 -12 3 3 0 11 -7 18 -10 9 -11 8 -5 -6z"/>
<path d="M4573 14550 c0 -36 2 -50 4 -32 2 17 2 47 0 65 -2 17 -4 3 -4 -33z"/>
<path d="M4600 14410 c0 -5 5 -10 11 -10 5 0 7 5 4 10 -3 6 -8 10 -11 10 -2 0
-4 -4 -4 -10z"/>
<path d="M2360 14330 c0 -5 5 -10 10 -10 6 0 10 5 10 10 0 6 -4 10 -10 10 -5
0 -10 -4 -10 -10z"/>
<path d="M4662 13974 c2 -16 -2 -28 -7 -27 -6 1 -11 -7 -11 -18 0 -10 4 -19 8
-19 4 0 8 -11 8 -24 0 -14 5 -28 10 -31 17 -10 38 14 33 35 -3 11 0 27 7 35 7
9 10 18 6 22 -3 3 -6 0 -6 -8 -1 -18 -24 20 -25 40 0 8 -6 16 -13 19 -9 3 -12
-5 -10 -24z"/>
<path d="M8960 13410 c0 -5 9 -10 20 -10 11 0 20 5 20 10 0 6 -9 10 -20 10
-11 0 -20 -4 -20 -10z"/>
<path d="M8960 13319 c0 -28 4 -39 13 -36 6 2 11 11 9 21 -2 9 2 16 8 16 5 0
10 9 10 20 0 13 -7 20 -20 20 -17 0 -20 -7 -20 -41z"/>
<path d="M8893 13265 c-17 -19 -16 -25 2 -25 8 0 15 9 15 20 0 23 -1 24 -17 5z"/>
<path d="M8885 13210 c3 -5 10 -10 16 -10 5 0 9 5 9 10 0 6 -7 10 -16 10 -8 0
-12 -4 -9 -10z"/>
<path d="M8968 13193 c7 -3 16 -2 19 1 4 3 -2 6 -13 5 -11 0 -14 -3 -6 -6z"/>
<path d="M8960 13120 c0 -6 -11 -15 -25 -20 -31 -12 -32 -28 -2 -39 15 -7 25
-5 33 5 6 8 17 14 23 14 19 0 8 44 -11 48 -10 2 -18 -1 -18 -8z"/>
<path d="M6898 12633 c12 -2 32 -2 45 0 12 2 2 4 -23 4 -25 0 -35 -2 -22 -4z"/>
<path d="M2446 12482 c-11 -18 -17 -80 -8 -86 6 -4 11 14 14 44 3 51 3 56 -6
42z"/>
<path d="M2450 12225 c0 -8 5 -15 10 -15 6 0 10 7 10 15 0 8 -4 15 -10 15 -5
0 -10 -7 -10 -15z"/>
<path d="M8960 9910 c0 -13 11 -13 30 0 12 8 11 10 -7 10 -13 0 -23 -4 -23
-10z"/>
<path d="M5665 8010 c-3 -5 -1 -10 4 -10 6 0 11 5 11 10 0 6 -2 10 -4 10 -3 0
-8 -4 -11 -10z"/>
<path d="M5661 7974 c0 -11 3 -14 6 -6 3 7 2 16 -1 19 -3 4 -6 -2 -5 -13z"/>
<path d="M6205 7960 c3 -5 8 -10 11 -10 2 0 4 5 4 10 0 6 -5 10 -11 10 -5 0
-7 -4 -4 -10z"/>
<path d="M6234 7884 c3 -9 6 -23 7 -32 0 -12 3 -10 10 6 10 25 5 42 -13 42 -5
0 -7 -7 -4 -16z"/>
<path d="M5852 7870 c0 -14 2 -19 5 -12 2 6 2 18 0 25 -3 6 -5 1 -5 -13z"/>
<path d="M5807 7528 c-36 -100 -87 -260 -87 -275 0 -32 17 1 34 67 10 36 31
105 48 153 30 88 35 135 5 55z"/>
<path d="M160 7310 c0 -5 9 -10 20 -10 11 0 20 5 20 10 0 6 -9 10 -20 10 -11
0 -20 -4 -20 -10z"/>
<path d="M8960 7170 c0 -5 5 -10 11 -10 5 0 7 5 4 10 -3 6 -8 10 -11 10 -2 0
-4 -4 -4 -10z"/>
<path d="M8908 6994 c-23 -20 -46 -46 -49 -58 -4 -16 -12 -20 -35 -18 -39 4
-119 -14 -229 -50 -53 -18 -131 -34 -190 -40 -154 -15 -165 -17 -165 -34 0 -8
13 -23 30 -32 28 -16 36 -32 30 -57 -19 -74 -54 -475 -43 -486 4 -4 50 -21
101 -38 51 -17 120 -46 155 -65 67 -37 164 -73 212 -78 22 -2 31 -9 35 -28 4
-17 21 -33 50 -48 25 -13 62 -33 82 -45 72 -40 108 13 108 161 l0 82 -27 1
c-16 0 -50 8 -78 17 -54 19 -73 48 -62 94 7 27 18 31 125 44 l42 6 0 134 c0
127 -1 134 -20 134 -11 0 -20 -7 -20 -15 0 -10 -10 -15 -30 -15 -16 0 -31 3
-31 8 -9 57 -7 77 7 94 13 14 14 21 5 32 -18 21 -5 36 29 36 60 0 60 0 60 150
0 116 -2 139 -16 144 -25 10 -30 8 -76 -30z m-66 -309 c-2 -33 -7 -64 -12 -68
-4 -5 -29 -5 -55 -2 -38 6 -49 12 -57 34 -6 14 -15 37 -21 50 -17 36 13 53 88
49 l60 -3 -3 -60z m-219 -2 c3 -5 8 -22 11 -39 7 -29 5 -31 -18 -27 -29 6 -40
27 -26 54 11 20 25 25 33 12z m137 -350 l41 -18 -7 -50 c-3 -27 -8 -53 -11
-57 -11 -19 -99 0 -115 25 -15 24 -7 63 17 90 30 32 25 31 75 10z m-120 -134
c0 -11 -4 -17 -10 -14 -5 3 -10 13 -10 21 0 8 5 14 10 14 6 0 10 -9 10 -21z"/>
<path d="M80 6330 c0 -5 5 -10 11 -10 5 0 7 5 4 10 -3 6 -8 10 -11 10 -2 0 -4
-4 -4 -10z"/>
<path d="M6702 6290 c-7 -30 -15 -65 -18 -77 -9 -33 13 -29 30 5 11 21 13 43
8 78 l-7 49 -13 -55z"/>
<path d="M8890 6250 c0 -5 5 -10 10 -10 6 0 10 5 10 10 0 6 -4 10 -10 10 -5 0
-10 -4 -10 -10z"/>
<path d="M6756 6204 c-11 -8 -16 -14 -10 -14 13 0 39 18 34 24 -3 2 -14 -2
-24 -10z"/>
<path d="M7215 4568 c-16 -5 -39 -14 -50 -18 -11 -5 -63 -20 -115 -34 l-95
-24 59 -1 c68 -1 165 22 219 52 57 32 47 47 -18 25z"/>
<path d="M4677 4063 c-3 -4 -8 -26 -11 -48 l-6 -40 15 44 c13 41 14 64 2 44z"/>
<path d="M4596 3805 c-9 -26 -7 -32 5 -12 6 10 9 21 6 23 -2 3 -7 -2 -11 -11z"/>
<path d="M4558 3695 c-4 -16 -9 -39 -12 -50 -4 -11 1 -5 9 14 9 18 14 41 13
50 -2 9 -7 3 -10 -14z"/>
<path d="M4515 3574 c-9 -21 -14 -48 -12 -59 2 -13 9 -1 20 34 20 64 15 80 -8
25z"/>
<path d="M4481 3464 c0 -11 3 -14 6 -6 3 7 2 16 -1 19 -3 4 -6 -2 -5 -13z"/>
<path d="M4471 3433 c-1 -6 -4 -20 -7 -30 -5 -17 -5 -17 6 0 6 10 9 23 6 30
-3 9 -5 9 -5 0z"/>
<path d="M4421 3274 c0 -11 3 -14 6 -6 3 7 2 16 -1 19 -3 4 -6 -2 -5 -13z"/>
<path d="M4232 2709 c-6 -23 -7 -38 -2 -33 9 10 24 74 17 74 -3 0 -9 -19 -15
-41z"/>
<path d="M4211 2644 c0 -11 3 -14 6 -6 3 7 2 16 -1 19 -3 4 -6 -2 -5 -13z"/>
<path d="M4146 2452 c-26 -81 -52 -160 -58 -175 -6 -15 -8 -30 -6 -33 3 -2 31
75 62 172 32 96 56 177 54 180 -3 2 -26 -63 -52 -144z"/>
<path d="M4061 2192 c-7 -20 -18 -53 -26 -72 -24 -63 -56 -173 -51 -177 2 -2
25 59 51 137 26 78 45 143 43 145 -2 3 -10 -12 -17 -33z"/>
<path d="M3949 1858 c-7 -23 -15 -47 -19 -53 -17 -27 -114 -334 -107 -341 4
-5 49 119 109 305 21 67 37 125 34 128 -2 3 -10 -15 -17 -39z"/>
<path d="M3752 1273 c-17 -49 -47 -140 -67 -203 -21 -63 -48 -144 -61 -180
-13 -36 -24 -72 -24 -81 0 -8 -4 -19 -9 -25 -5 -5 -40 -103 -79 -219 -201
-607 -188 -565 -173 -565 8 0 61 158 333 990 39 118 74 224 78 235 17 43 41
127 37 131 -2 3 -18 -35 -35 -83z"/>
</g>
</svg>
